<?xml version="1.0" standalone="no"?>
<!DOCTYPE svg PUBLIC "-//W3C//DTD SVG 20010904//EN"
 "http://www.w3.org/TR/2001/REC-SVG-20010904/DTD/svg10.dtd">
<svg version="1.0" xmlns="http://www.w3.org/2000/svg"
 width="256.000000pt" height="256.000000pt" viewBox="0 0 256.000000 256.000000"
 preserveAspectRatio="xMidYMid meet">

<g transform="translate(0.000000,256.000000) scale(0.100000,-0.100000)"
fill="#000000" stroke="none">
<path d="M821 2010 c-355 -101 -591 -459 -542 -822 14 -109 61 -240 116 -323
117 -179 338 -319 526 -333 53 -4 67 -1 72 11 4 12 -5 17 -46 22 -364 50 -630
352 -630 715 0 280 155 527 406 646 72 34 209 74 253 74 17 0 22 4 18 15 -8
21 -92 19 -173 -5z"/>
<path d="M982 1900 c0 -19 2 -27 5 -17 2 9 2 25 0 35 -3 9 -5 1 -5 -18z"/>
<path d="M780 1860 c6 -11 13 -20 16 -20 2 0 0 9 -6 20 -6 11 -13 20 -16 20
-2 0 0 -9 6 -20z"/>
<path d="M1211 1834 c0 -11 3 -14 6 -6 3 7 2 16 -1 19 -3 4 -6 -2 -5 -13z"/>
<path d="M1729 1780 c19 -5 41 -6 50 -3 9 2 5 -3 -9 -12 -24 -15 -24 -15 -2
-10 17 5 30 -2 55 -27 17 -18 35 -32 38 -31 3 1 3 -11 1 -27 -3 -19 -9 -27
-18 -23 -8 3 -14 1 -14 -4 0 -5 9 -9 20 -10 15 -1 20 4 20 23 0 18 6 24 23 25
16 1 18 2 5 6 -10 2 -18 9 -18 14 0 6 6 7 13 3 7 -5 6 1 -4 16 -23 37 -95 70
-149 69 -45 -1 -45 -1 -11 -9z m117 -31 c36 -22 45 -39 18 -35 -15 2 -71 56
-58 56 4 0 22 -9 40 -21z"/>
<path d="M1674 1748 c-10 -13 -12 -18 -4 -12 8 6 29 16 45 22 30 10 30 10 4
11 -15 1 -34 -8 -45 -21z"/>
<path d="M1315 1749 c-11 -16 -1 -19 13 -3 7 8 8 14 3 14 -5 0 -13 -5 -16 -11z"/>
<path d="M1635 1751 c-11 -5 -29 -19 -40 -32 -13 -14 -14 -20 -5 -15 8 4 7 1
-4 -8 -17 -13 -6 -15 118 -18 75 -2 135 1 133 5 -1 5 -53 9 -115 8 -61 0 -112
3 -112 7 0 3 12 19 27 34 29 30 29 31 -2 19z"/>
<path d="M1366 1695 c-11 -8 -15 -15 -9 -15 6 0 16 7 23 15 16 19 11 19 -14 0z"/>
<path d="M1480 1690 l-75 -6 67 -2 c42 -1 68 -6 70 -14 3 -7 7 -2 10 10 4 12
5 21 5 20 -1 -1 -36 -4 -77 -8z"/>
<path d="M1941 1655 c-1 -26 -7 -33 -36 -44 -19 -7 -40 -22 -46 -33 -8 -16 -8
-19 1 -13 8 5 11 3 8 -6 -3 -8 -10 -13 -16 -12 -18 4 -48 -122 -32 -132 5 -3
7 -12 4 -19 -3 -8 -1 -17 5 -21 7 -3 11 2 11 14 0 15 7 21 23 22 l22 0 -23 9
c-12 5 -25 16 -28 25 -9 22 14 75 50 114 29 32 30 33 6 22 l-25 -12 24 20 c27
25 68 27 98 6 14 -10 24 -12 28 -5 3 5 2 10 -2 10 -5 0 -10 14 -11 32 -3 40
-12 51 -12 14 0 -38 -33 -31 -41 9 l-6 30 -2 -30z"/>
<path d="M1380 1627 c0 -26 4 -47 9 -47 8 0 3 79 -5 89 -2 2 -4 -17 -4 -42z"/>
<path d="M1560 1645 c0 -18 -16 -20 -23 -2 -3 7 -6 5 -6 -5 -1 -12 6 -18 19
-18 13 0 20 7 20 20 0 11 -2 20 -5 20 -3 0 -5 -7 -5 -15z"/>
<path d="M1093 1614 c-3 -8 -17 -21 -31 -28 -25 -13 -25 -14 -4 -20 12 -4 22
-10 22 -14 0 -4 4 -13 9 -20 6 -10 15 -6 37 15 l29 28 -28 27 c-22 22 -29 25
-34 12z"/>
<path d="M1222 1601 c2 -7 7 -12 11 -12 12 1 9 15 -3 20 -7 2 -11 -2 -8 -8z"/>
<path d="M1908 1567 c-10 -22 -13 -39 -7 -48 7 -12 9 -11 9 2 0 8 7 24 15 35
13 17 14 14 15 -43 l0 -62 -45 1 c-25 0 -49 -2 -52 -6 -4 -3 27 -5 68 -5 41 1
66 3 57 6 -15 4 -18 15 -16 71 1 64 1 65 8 22 l7 -45 1 43 c1 23 2 45 2 50 0
4 -10 8 -22 10 -17 2 -27 -6 -40 -31z"/>
<path d="M2043 1585 c0 -8 4 -12 9 -9 5 3 6 10 3 15 -9 13 -12 11 -12 -6z"/>
<path d="M1315 1581 c-38 -16 -58 -48 -49 -78 l8 -28 4 25 c5 35 38 68 68 68
20 0 22 -3 12 -15 -9 -11 -8 -13 3 -11 9 2 15 -7 17 -27 6 -54 24 -54 20 0 -3
44 -6 52 -32 63 -15 6 -29 12 -30 11 0 0 -10 -4 -21 -8z m-5 -14 c0 -2 -10
-12 -22 -23 l-23 -19 19 23 c18 21 26 27 26 19z"/>
<path d="M1591 1548 c-1 -46 0 -48 27 -47 15 0 35 4 45 8 17 6 17 8 -4 26
l-22 20 8 -23 c6 -21 4 -23 -17 -20 -18 2 -24 11 -29 43 l-6 40 -2 -47z"/>
<path d="M1410 1574 c0 -6 7 -19 15 -30 8 -10 14 -14 14 -9 0 6 -6 19 -14 29
-8 11 -15 15 -15 10z"/>
<path d="M1991 1533 c2 -34 3 -39 6 -18 3 17 8 33 12 37 9 10 12 -20 13 -104
1 -53 4 -68 16 -68 8 0 12 6 8 15 -4 11 3 15 27 16 30 2 30 2 5 6 -45 7 -32
23 20 24 26 1 37 4 25 6 -13 2 -23 12 -23 21 -1 9 -10 33 -21 52 -11 19 -17
26 -14 15 4 -11 9 -35 12 -52 5 -29 3 -33 -16 -33 -18 0 -21 6 -21 43 -1 44
-16 80 -37 85 -9 1 -13 -12 -12 -45z"/>
<path d="M460 1546 c0 -2 7 -7 16 -10 8 -3 12 -2 9 4 -6 10 -25 14 -25 6z"/>
<path d="M500 1526 c0 -2 8 -10 18 -17 15 -13 16 -12 3 4 -13 16 -21 21 -21
13z"/>
<path d="M1180 1515 c-11 -13 -11 -18 1 -30 11 -11 17 -11 31 -1 17 12 17 14
-1 30 -16 15 -19 15 -31 1z"/>
<path d="M1891 1484 c0 -11 3 -14 6 -6 3 7 2 16 -1 19 -3 4 -6 -2 -5 -13z"/>
<path d="M1461 1458 c0 -16 -5 -28 -9 -28 -4 0 -8 -15 -8 -33 0 -24 4 -33 17
-33 14 0 16 6 12 27 -5 24 -2 28 23 32 l29 4 -27 2 c-21 1 -28 7 -31 29 l-4
27 -2 -27z"/>
<path d="M1650 1468 c0 -14 8 -18 38 -17 34 2 34 2 7 6 -16 3 -33 10 -37 16
-5 8 -8 6 -8 -5z"/>
<path d="M455 1460 c3 -5 11 -10 16 -10 6 0 7 5 4 10 -3 6 -11 10 -16 10 -6 0
-7 -4 -4 -10z"/>
<path d="M1312 1448 c-1 -14 -8 -29 -14 -32 -10 -5 -10 -7 0 -12 6 -3 12 -14
12 -24 0 -10 7 -20 15 -24 17 -6 21 14 6 30 -5 5 -11 27 -14 49 -2 24 -4 29
-5 13z"/>
<path d="M1398 1441 c-6 -20 -12 -23 -37 -19 -18 3 -31 0 -31 -6 0 -7 19 -10
51 -7 29 2 47 6 42 10 -6 3 -13 15 -15 26 -3 18 -4 18 -10 -4z"/>
<path d="M1780 1430 c-13 -8 -12 -10 3 -10 9 0 17 5 17 10 0 12 -1 12 -20 0z"/>
<path d="M2134 1424 c-18 -15 -18 -15 3 -5 19 10 22 8 26 -17 4 -25 4 -25 6 6
1 36 -6 39 -35 16z"/>
<path d="M1948 1423 c12 -2 32 -2 45 0 12 2 2 4 -23 4 -25 0 -35 -2 -22 -4z"/>
<path d="M458 1403 c7 -3 16 -2 19 1 4 3 -2 6 -13 5 -11 0 -14 -3 -6 -6z"/>
<path d="M651 1393 c-10 -21 -81 -221 -81 -232 0 -11 138 -12 145 -1 8 12 62
13 69 1 10 -15 224 -10 237 5 15 18 55 18 62 0 8 -19 152 -19 168 0 15 18 43
18 58 1 6 -9 35 -14 75 -15 52 0 68 3 82 19 22 24 44 24 44 0 0 -14 -10 -22
-32 -26 -49 -11 -68 -27 -68 -58 0 -65 87 -53 125 17 11 20 25 36 31 36 6 0
24 12 39 26 15 14 34 23 42 20 24 -10 10 -28 -32 -43 -71 -24 -86 -59 -39 -90
24 -15 29 -15 52 -2 15 8 37 30 50 49 33 49 53 57 133 53 39 -2 79 1 89 7 10
5 26 30 35 55 10 25 24 45 32 45 10 0 13 -6 9 -16 -24 -62 -14 -94 29 -94 25
0 75 51 75 76 0 24 -24 15 -42 -16 -20 -36 -43 -41 -34 -7 20 69 19 76 -8 88
-14 7 -26 19 -26 26 0 9 -8 13 -22 11 -17 -2 -23 -10 -23 -28 -1 -34 -23 -96
-40 -110 -28 -24 -35 0 -14 52 11 28 18 56 15 63 -4 10 -28 12 -93 6 -6 -1
-19 -22 -29 -48 -17 -48 -41 -83 -54 -83 -16 0 -20 34 -5 50 25 28 19 69 -12
81 -36 13 -67 8 -71 -13 -3 -14 3 -18 28 -18 25 0 31 -4 28 -17 -2 -12 -13
-18 -32 -18 -22 0 -33 -7 -46 -29 -9 -16 -21 -31 -28 -34 -20 -6 -25 25 -8 50
9 12 16 30 16 40 0 24 -43 50 -77 46 -40 -4 -37 -32 5 -36 17 -2 32 -6 32 -10
-1 -19 -19 -32 -40 -30 -18 2 -28 -4 -38 -25 -13 -27 -38 -45 -47 -35 -3 3 4
31 15 63 11 31 17 61 15 66 -7 11 -93 5 -105 -7 -5 -5 -16 -27 -23 -49 -20
-57 -38 -58 -31 -1 6 44 5 46 -24 59 -23 10 -29 16 -22 27 15 23 12 60 -4 60
-8 0 -25 -31 -42 -77 -45 -128 -52 -143 -68 -143 -20 0 -20 4 4 67 17 45 17
53 5 63 -13 10 -18 6 -30 -26 -21 -54 -29 -67 -44 -72 -12 -4 -11 9 6 55 5 12
-26 48 -47 55 -10 3 -11 11 -2 36 8 23 8 33 0 38 -17 11 -35 -20 -64 -110 -26
-81 -47 -116 -61 -103 -3 4 1 32 11 62 9 30 15 59 12 64 -8 13 -86 5 -101 -10
-8 -8 -20 -32 -28 -53 -7 -22 -18 -41 -23 -43 -13 -4 -10 86 4 120 9 20 9 34
2 48 -11 20 -52 35 -69 25 -5 -4 -12 -2 -16 4 -9 15 -23 12 -34 -7z m79 -52
c0 -14 -8 -21 -27 -23 -22 -2 -28 -8 -28 -28 0 -18 6 -26 23 -28 12 -2 22 -10
22 -17 0 -10 -10 -12 -37 -8 -21 3 -40 7 -42 9 -5 4 28 86 41 102 16 19 48 15
48 -7z m282 -94 c-13 -14 -20 -31 -17 -39 7 -18 -9 -33 -24 -23 -12 7 14 86
32 97 24 15 31 -12 9 -35z m-148 24 c9 -14 -20 -86 -35 -86 -16 0 -15 27 0 68
11 27 25 35 35 18z m386 -6 c0 -9 -7 -18 -16 -22 -9 -3 -14 -15 -12 -32 2 -19
-2 -27 -16 -29 -20 -4 -19 13 4 73 10 27 40 35 40 10z m137 -21 c-6 -36 -22
-64 -38 -64 -13 0 -11 26 5 65 20 47 40 46 33 -1z m445 10 c-6 -38 -25 -74
-39 -74 -16 0 -14 20 7 75 11 30 37 29 32 -1z m-1142 -59 c0 -16 -35 -21 -44
-6 -8 12 4 21 26 21 10 0 18 -7 18 -15z m940 -100 c-14 -17 -40 -20 -40 -5 0
11 42 31 49 24 2 -2 -2 -10 -9 -19z m-140 5 c0 -12 -28 -25 -36 -17 -9 9 6 27
22 27 8 0 14 -5 14 -10z"/>
<path d="M1552 1385 c0 -16 2 -22 5 -12 2 9 2 23 0 30 -3 6 -5 -1 -5 -18z"/>
<path d="M1135 1380 c-8 -14 3 -30 21 -30 8 0 14 9 14 20 0 21 -24 28 -35 10z"/>
<path d="M2103 1330 c0 -36 2 -50 4 -32 2 17 2 47 0 65 -2 17 -4 3 -4 -33z"/>
<path d="M2152 1159 c-2 -199 -4 -219 -22 -240 l-19 -24 -1 39 c0 35 2 37 18
25 16 -13 16 -13 0 7 -13 15 -18 43 -21 114 -2 77 -3 68 -5 -47 -1 -78 2 -144
6 -147 4 -2 18 10 30 28 22 32 22 39 19 247 l-2 214 -3 -216z"/>
<path d="M423 1203 c9 -2 23 -2 30 0 6 3 -1 5 -18 5 -16 0 -22 -2 -12 -5z"/>
<path d="M448 1173 c7 -3 16 -2 19 1 4 3 -2 6 -13 5 -11 0 -14 -3 -6 -6z"/>
<path d="M1162 1008 c-1 -60 1 -108 6 -108 4 0 16 7 26 15 28 21 33 19 46 -20
21 -63 25 -45 18 68 -10 148 -18 179 -12 47 3 -72 1 -100 -6 -90 -5 8 -10 38
-10 65 -1 28 -5 68 -10 90 -6 30 -7 20 -3 -38 5 -72 4 -80 -18 -103 l-24 -26
-6 104 -5 103 -2 -107z"/>
<path d="M1752 1058 l-2 -58 -90 0 -90 0 6 -27 c9 -37 14 -42 14 -12 0 23 3
24 81 27 l82 2 -7 -42 c-4 -32 -3 -39 4 -26 6 10 9 56 7 105 -2 61 -4 71 -5
31z"/>
<path d="M474 1064 c-18 -14 -18 -14 6 -3 31 14 36 19 24 19 -6 0 -19 -7 -30
-16z"/>
<path d="M1870 1040 c0 -40 0 -40 38 -40 52 0 70 13 38 28 -21 9 -24 9 -19 -3
3 -10 -2 -15 -16 -15 -17 0 -21 6 -21 35 0 19 -4 35 -10 35 -5 0 -10 -18 -10
-40z"/>
<path d="M1292 986 l-2 -48 33 6 c17 3 38 7 45 8 6 1 12 3 12 6 0 8 -34 31
-45 32 -5 0 -3 -5 5 -10 11 -7 12 -12 3 -21 -20 -20 -42 -2 -46 38 -3 35 -4
34 -5 -11z"/>
<path d="M509 999 l-24 -20 28 17 c15 9 27 18 27 20 0 8 -8 4 -31 -17z"/>
<path d="M1932 960 c2 -8 18 -16 34 -17 18 -1 22 0 9 4 -11 3 -26 10 -34 17
-11 9 -13 8 -9 -4z"/>
<path d="M1351 913 c-1 -20 4 -23 32 -22 29 2 29 2 5 6 -15 2 -29 12 -31 21
-3 12 -5 10 -6 -5z"/>
<path d="M1818 903 c17 -2 47 -2 65 0 17 2 3 4 -33 4 -36 0 -50 -2 -32 -4z"/>
<path d="M1455 880 c-33 -10 -51 -18 -40 -19 11 0 45 8 75 19 71 23 44 23 -35
0z"/>
<path d="M1965 890 c28 -5 66 -8 85 -8 l35 0 -40 9 c-22 4 -60 8 -85 7 l-45
-1 50 -7z"/>
<path d="M1358 853 c7 -3 16 -2 19 1 4 3 -2 6 -13 5 -11 0 -14 -3 -6 -6z"/>
<path d="M1356 757 c3 -10 9 -15 12 -12 3 3 0 11 -7 18 -10 9 -11 8 -5 -6z"/>
</g>
</svg>
