<?xml version="1.0" standalone="no"?>
<!DOCTYPE svg PUBLIC "-//W3C//DTD SVG 20010904//EN"
 "http://www.w3.org/TR/2001/REC-SVG-20010904/DTD/svg10.dtd">
<svg version="1.0" xmlns="http://www.w3.org/2000/svg"
 width="1254.000000pt" height="1254.000000pt" viewBox="0 0 1254.000000 1254.000000"
 preserveAspectRatio="xMidYMid meet">

<g transform="translate(0.000000,1254.000000) scale(0.100000,-0.100000)"
fill="#000000" stroke="none">
<path d="M6260 12286 c-29 -11 -188 -112 -695 -441 -552 -358 -1193 -772
-1423 -920 -99 -63 -157 -106 -162 -121 -12 -30 2 -69 29 -83 12 -7 117 -11
284 -11 l265 0 368 243 c203 134 607 398 898 586 l528 344 487 -327 c644 -433
1385 -933 1442 -973 l45 -31 -1 -836 c-1 -460 1 -836 5 -836 21 0 148 313 184
455 51 202 56 262 56 673 0 210 2 382 4 382 3 0 26 -11 52 -25 139 -74 311 35
291 185 -12 90 -16 94 -380 343 -805 551 -2045 1377 -2091 1393 -48 17 -139
17 -186 0z"/>
<path d="M6131 11054 c-83 -22 -170 -73 -234 -137 -32 -32 -56 -62 -52 -65 4
-4 11 2 17 13 16 30 87 93 136 122 83 49 142 65 262 73 l115 7 -95 1 c-54 0
-118 -5 -149 -14z"/>
<path d="M6398 11053 c7 -3 16 -2 19 1 4 3 -2 6 -13 5 -11 0 -14 -3 -6 -6z"/>
<path d="M6445 11040 c27 -12 43 -12 25 0 -8 5 -22 9 -30 9 -10 0 -8 -3 5 -9z"/>
<path d="M6540 11006 c0 -2 7 -7 16 -10 8 -3 12 -2 9 4 -6 10 -25 14 -25 6z"/>
<path d="M6580 10986 c0 -3 9 -10 20 -16 11 -6 20 -8 20 -6 0 3 -9 10 -20 16
-11 6 -20 8 -20 6z"/>
<path d="M6660 10934 c65 -52 151 -147 182 -201 16 -29 32 -53 35 -53 2 0 -7
22 -22 48 -35 64 -121 159 -181 200 -32 21 -36 23 -14 6z"/>
<path d="M5495 10836 c-143 -35 -222 -126 -200 -228 14 -65 85 -140 200 -214
27 -17 30 -24 31 -74 1 -34 15 -99 39 -171 l38 -116 -23 -31 c-20 -27 -22 -39
-18 -109 3 -54 11 -91 25 -118 12 -22 24 -67 27 -100 9 -101 60 -189 187 -320
63 -65 125 -119 147 -129 l39 -18 -43 -65 c-24 -35 -44 -69 -44 -74 0 -4 -17
-18 -37 -29 -36 -20 -32 -21 11 -4 16 6 17 4 7 -14 -6 -11 -16 -65 -21 -119
-10 -84 -22 -163 -55 -355 l-7 -36 384 -1 384 -1 19 72 c35 137 87 273 149
388 111 205 117 218 105 222 -6 2 -30 39 -52 83 -33 63 -50 84 -79 100 l-38
20 0 80 c0 44 3 97 6 117 6 35 8 36 39 31 124 -20 262 149 240 295 -4 29 -17
56 -39 80 -25 28 -31 42 -25 57 19 48 10 65 -88 167 -148 152 -318 280 -543
409 -317 183 -575 252 -765 205z m149 -583 c-4 -38 -2 -53 4 -44 5 7 7 22 5
32 -3 11 0 19 7 19 7 0 10 -7 6 -15 -7 -20 -3 -19 36 5 18 11 44 20 58 19 26
-1 22 -4 -22 -13 -35 -8 -87 -53 -105 -91 -13 -29 -14 -27 -9 33 6 64 15 112
22 112 2 0 2 -26 -2 -57z m626 17 c-93 -8 -120 -21 -120 -60 0 -34 11 -39 65
-29 22 5 60 8 85 7 l45 0 -50 -9 c-70 -12 -158 -19 -152 -12 4 3 2 14 -4 25
-28 53 24 88 131 86 l75 -1 -75 -7z m-396 -21 c18 -14 26 -30 26 -50 0 -36
-16 -44 -61 -30 l-34 10 40 -2 c33 -2 40 1 43 18 4 31 -21 57 -64 65 -36 7
-37 8 -8 9 18 1 43 -8 58 -20z m551 -14 c39 -32 28 -32 -15 0 -19 14 -30 25
-24 25 5 0 23 -11 39 -25z m163 -67 c6 -16 9 -28 7 -28 -10 0 -35 74 -34 99 1
22 2 21 9 -9 4 -19 12 -47 18 -62z m-109 -2 c-3 -3 -11 5 -18 17 -13 21 -12
21 5 5 10 -10 16 -20 13 -22z m-729 7 c-8 -2 -32 -11 -52 -19 -21 -7 -38 -11
-38 -8 0 8 63 33 85 33 14 0 15 -2 5 -6z m627 1 c-3 -3 -12 -4 -19 -1 -8 3 -5
6 6 6 11 1 17 -2 13 -5z m84 -41 c13 -16 12 -17 -3 -4 -10 7 -18 15 -18 17 0
8 8 3 21 -13z m159 -38 c0 -5 -5 -3 -10 5 -5 8 -10 20 -10 25 0 6 5 3 10 -5 5
-8 10 -19 10 -25z m-782 1 c15 -8 36 -25 47 -37 l20 -24 -25 22 c-35 30 -78
45 -111 38 -48 -11 -98 -80 -90 -127 0 -5 -3 -8 -9 -8 -32 0 17 99 66 130 34
23 65 25 102 6z m538 -7 c49 -23 88 -77 81 -111 -4 -22 -4 -22 -6 2 -2 36 -55
96 -97 110 -20 7 -53 10 -73 6 -25 -4 -31 -2 -21 4 24 16 71 11 116 -11z
m-167 -37 c-19 -21 -36 -37 -38 -35 -5 3 59 73 67 73 2 0 -11 -17 -29 -38z
m434 -174 c8 -5 8 -8 1 -8 -27 0 -33 27 -26 120 l7 95 3 -100 c2 -64 7 -102
15 -107z m-849 158 c-43 -43 -46 -90 -8 -135 21 -25 23 -31 9 -31 -25 0 -73
28 -85 49 -34 64 20 148 97 150 19 1 18 -2 -13 -33z m573 14 c39 -23 67 -74
59 -105 -3 -13 -22 -37 -43 -55 -34 -31 -39 -32 -92 -26 -100 11 -134 56 -98
128 36 72 111 97 174 58z m-718 -144 c1 -104 -6 -76 -12 49 -4 75 -3 96 3 65
5 -25 9 -76 9 -114z m177 85 c-9 -14 -33 -14 -41 -1 -4 6 -1 18 6 26 11 13 14
13 27 0 8 -8 11 -19 8 -25z m116 -31 c4 8 4 -3 1 -25 -3 -22 -10 -47 -15 -55
-6 -10 -7 -1 -3 25 l6 40 -22 -32 c-11 -18 -25 -33 -30 -33 -4 0 3 17 17 37
18 27 23 45 19 67 -5 30 -4 30 8 -4 9 -24 16 -30 19 -20z m917 46 c-2 -2 -24
-6 -48 -9 -29 -4 -40 -2 -30 4 13 8 88 14 78 5z m55 -32 c3 -8 2 -12 -4 -9 -6
3 -10 10 -10 16 0 14 7 11 14 -7z m-944 -91 c-11 -17 -11 -17 -6 0 3 10 7 33
8 50 l1 32 4 -32 c2 -18 -1 -41 -7 -50z m745 28 c-21 -43 -29 -39 -8 4 9 19
18 33 21 31 2 -2 -4 -18 -13 -35z m53 -18 c-8 -10 -20 -27 -26 -38 -6 -11 -12
-15 -12 -9 0 12 38 64 47 64 3 0 -1 -8 -9 -17z m158 -67 c-3 -18 -13 -41 -21
-52 -14 -18 -14 -17 -5 10 6 16 8 36 6 43 -3 8 -1 11 4 8 6 -4 10 6 11 22 0
15 3 22 6 15 3 -7 2 -28 -1 -46z m-1289 -108 c-2 -24 -4 -7 -4 37 0 44 2 63 4
43 2 -21 2 -57 0 -80z m293 93 c-13 -26 -13 -34 2 -25 7 4 8 3 4 -5 -4 -6 -12
-9 -17 -6 -5 4 -9 4 -9 1 0 -3 12 -12 28 -20 15 -8 21 -15 14 -16 -21 0 -52
19 -52 33 0 13 28 57 36 57 3 0 0 -9 -6 -19z m-50 -10 c-18 -34 -11 -64 22
-98 40 -42 30 -43 -17 -2 -38 34 -44 62 -19 97 19 27 28 29 14 3z m890 -35 c0
-2 -7 -7 -16 -10 -8 -3 -12 -2 -9 4 6 10 25 14 25 6z m5 -36 c-3 -5 -16 -10
-28 -9 -21 0 -21 1 -2 9 28 12 37 12 30 0z m-682 -7 c-7 -2 -19 -2 -25 0 -7 3
-2 5 12 5 14 0 19 -2 13 -5z m757 -28 c0 -3 -15 -14 -32 -25 -36 -21 -107 -27
-138 -10 -16 8 -20 4 -34 -37 -19 -54 -58 -124 -82 -144 -9 -7 -4 4 10 26 15
21 24 45 22 52 -3 7 0 12 6 10 6 -1 18 18 27 43 24 65 29 72 51 60 30 -16 92
-12 130 9 40 23 40 23 40 16z m-542 -31 c12 -8 22 -22 22 -29 0 -15 -122 -145
-135 -145 -4 0 15 24 44 54 28 30 51 60 51 66 0 7 7 10 15 6 25 -9 17 21 -11
43 -31 24 -19 29 14 5z m-642 -61 c9 -23 21 -41 27 -40 7 1 11 -8 10 -21 -2
-15 1 -21 9 -16 7 4 8 3 4 -5 -4 -6 3 -26 15 -44 21 -30 21 -31 2 -14 -30 26
-80 125 -87 172 -6 41 -5 40 20 -32z m599 38 c-3 -6 -14 -10 -23 -10 -15 1
-15 2 1 6 9 2 17 9 17 15 0 6 3 9 6 5 3 -3 3 -10 -1 -16z m-400 -19 c-3 -3
-11 0 -18 7 -9 10 -8 11 6 5 10 -3 15 -9 12 -12z m-39 -19 c-10 -10 -19 5 -10
18 6 11 8 11 12 0 2 -7 1 -15 -2 -18z m374 17 c-14 -4 -36 -8 -50 -8 -22 0
-22 1 5 8 17 4 39 8 50 8 16 0 15 -2 -5 -8z m-142 -17 c-26 -2 -71 -2 -100 0
-29 2 -8 3 47 3 55 0 79 -1 53 -3z m171 -39 c-99 -103 -223 -119 -294 -37
l-33 38 132 7 c72 3 151 13 176 20 25 8 47 13 49 11 3 -2 -11 -19 -30 -39z
m-339 -24 c19 -27 49 -57 67 -67 37 -20 37 -28 0 -14 -23 9 -127 132 -110 131
4 -1 24 -23 43 -50z m758 -87 c-1 -78 -2 -82 -7 -33 -5 50 -7 53 -19 35 l-14
-20 7 20 c4 11 11 35 17 53 5 17 11 32 13 32 3 0 4 -39 3 -87z m-468 32 c0
-15 -90 -44 -130 -44 l-45 1 50 8 c28 4 66 14 85 23 43 19 40 18 40 12z m326
-71 c-46 -43 -108 -85 -79 -53 18 18 117 98 123 98 3 0 -17 -20 -44 -45z
m-611 -114 c29 -38 -65 48 -110 100 -34 39 -30 36 25 -15 36 -33 74 -71 85
-85z m215 120 c-8 -5 -33 -9 -55 -8 l-40 1 45 7 c25 4 50 8 55 8 6 1 3 -3 -5
-8z m20 -14 c0 -13 -34 -36 -53 -36 -18 0 -15 4 13 19 19 10 36 19 38 20 1 0
2 -1 2 -3z m422 -53 c-11 -16 -30 -37 -43 -48 -13 -11 -6 1 15 28 42 51 59 64
28 20z m105 -60 c-3 -10 -5 -4 -5 12 0 17 2 24 5 18 2 -7 2 -21 0 -30z m-297
22 c0 -6 -76 -45 -87 -45 -4 1 12 12 37 25 50 27 50 27 50 20z m-285 -75 l90
-7 -83 -1 c-65 -2 -91 2 -122 18 -22 11 -40 23 -40 25 0 3 15 -2 33 -11 19
-10 69 -20 122 -24z m345 -18 c0 -4 -10 -13 -22 -21 -23 -14 -23 -14 -4 8 20
22 26 25 26 13z m145 -83 c-22 -22 -53 -50 -70 -61 -16 -11 -1 7 35 41 75 69
92 80 35 20z m-255 6 c0 -10 -84 -45 -105 -44 -11 0 -2 6 20 13 23 7 50 18 60
24 23 13 25 14 25 7z m-203 -203 c24 -33 76 -132 68 -132 -2 0 -16 22 -30 49
-13 27 -36 66 -50 87 -18 26 -25 49 -24 78 l2 41 6 -47 c4 -26 16 -60 28 -76z
m343 103 c0 -2 -31 -27 -70 -53 -38 -27 -93 -77 -121 -111 -29 -33 -54 -61
-56 -61 -2 0 21 32 50 70 37 48 72 81 113 106 32 19 63 40 69 45 10 10 15 11
15 4z"/>
<path d="M6278 10045 c-33 -18 -52 -72 -39 -107 12 -32 57 -68 86 -68 27 0 61
36 70 73 10 37 -12 85 -46 102 -34 18 -37 18 -71 0z m17 -46 c0 -7 -8 -15 -17
-17 -18 -3 -25 18 -11 32 10 10 28 1 28 -15z"/>
<path d="M5878 10843 c7 -3 16 -2 19 1 4 3 -2 6 -13 5 -11 0 -14 -3 -6 -6z"/>
<path d="M5989 10809 c30 -10 56 -17 58 -15 5 5 -86 36 -101 35 -6 0 13 -9 43
-20z"/>
<path d="M6151 10746 c10 -9 109 -56 109 -51 0 5 -95 55 -106 55 -4 0 -5 -2
-3 -4z"/>
<path d="M6295 10673 c14 -14 155 -104 155 -98 0 5 -70 53 -125 85 -22 13 -35
19 -30 13z"/>
<path d="M6890 10645 c0 -5 5 -17 10 -25 5 -8 10 -10 10 -5 0 6 -5 17 -10 25
-5 8 -10 11 -10 5z"/>
<path d="M4689 9948 c0 -922 0 -1030 5 -1036 3 -2 12 -2 21 1 13 6 15 96 13
849 -3 793 -4 843 -20 846 -17 3 -18 -34 -19 -660z"/>
<path d="M6915 10580 c28 -145 30 -206 10 -355 -5 -39 -5 -39 6 -10 19 48 16
291 -4 345 -9 25 -15 34 -12 20z"/>
<path d="M4260 10545 c0 -14 2 -25 4 -25 2 0 6 11 8 25 3 14 1 25 -3 25 -5 0
-9 -11 -9 -25z"/>
<path d="M6470 10557 c0 -2 28 -25 63 -52 34 -26 54 -39 44 -28 -18 20 -107
87 -107 80z"/>
<path d="M4060 10492 c0 -5 10 -17 22 -28 l21 -19 -18 28 c-18 28 -25 33 -25
19z"/>
<path d="M4450 10471 c-12 -17 -18 -31 -13 -31 11 1 46 50 40 56 -3 3 -15 -9
-27 -25z"/>
<path d="M4248 10453 c12 -2 30 -2 40 0 9 3 -1 5 -23 4 -22 0 -30 -2 -17 -4z"/>
<path d="M4350 10436 c0 -2 14 -14 30 -26 17 -12 30 -19 30 -16 0 2 -13 14
-30 26 -16 12 -30 19 -30 16z"/>
<path d="M4134 10398 l-29 -33 33 29 c17 17 32 31 32 33 0 8 -8 1 -36 -29z"/>
<path d="M6702 10362 c37 -35 97 -95 134 -135 37 -40 53 -54 36 -32 -31 40
-166 174 -212 210 -14 11 5 -8 42 -43z"/>
<path d="M4093 10290 c0 -25 2 -35 4 -22 2 12 2 32 0 45 -2 12 -4 2 -4 -23z"/>
<path d="M4020 10290 c-13 -8 -12 -10 3 -10 9 0 17 5 17 10 0 12 -1 12 -20 0z"/>
<path d="M4436 10267 c-4 -19 -27 -65 -51 -103 -25 -37 -45 -76 -45 -86 0 -10
-6 -18 -14 -18 -11 0 -13 15 -10 68 2 48 1 59 -5 37 -5 -16 -9 -47 -10 -67 -1
-27 -6 -38 -16 -38 -12 0 -15 13 -15 61 0 33 5 70 12 82 10 19 9 20 -4 9 -11
-8 -17 -9 -20 -2 -2 6 -2 -26 0 -70 3 -51 0 -80 -6 -80 -6 0 -13 10 -15 23 -4
22 -4 22 -6 -2 -1 -19 -5 -23 -26 -19 -14 3 -25 1 -25 -3 0 -5 38 -9 85 -9 79
0 85 1 85 21 0 25 13 49 55 104 29 39 54 110 42 121 -3 3 -7 -11 -11 -29z"/>
<path d="M4490 10290 c0 -6 17 -10 37 -10 43 0 41 5 -4 13 -19 4 -33 2 -33 -3z"/>
<path d="M3978 10283 c7 -3 16 -2 19 1 4 3 -2 6 -13 5 -11 0 -14 -3 -6 -6z"/>
<path d="M4192 10278 c-15 -15 -15 -41 0 -56 9 -9 8 -15 -7 -25 -18 -14 -13
-43 6 -31 5 3 7 9 4 14 -3 5 -1 11 5 15 5 3 12 -7 16 -22 10 -46 12 -49 13
-17 1 17 -8 43 -19 57 -39 49 -10 90 34 48 12 -11 26 -21 30 -21 4 0 -6 11
-22 25 -34 28 -43 30 -60 13z"/>
<path d="M4325 10219 c-4 -6 -5 -12 -2 -15 2 -3 7 2 10 11 7 17 1 20 -8 4z"/>
<path d="M7426 10214 c-12 -30 -7 -259 6 -272 8 -8 53 -12 138 -12 85 0 130 4
138 12 8 8 12 53 12 138 0 85 -4 130 -12 138 -8 8 -55 12 -144 12 -111 0 -133
-3 -138 -16z"/>
<path d="M7817 10223 c-13 -12 -8 -268 5 -281 8 -8 53 -12 138 -12 85 0 130 4
138 12 8 8 12 53 12 138 0 85 -4 130 -12 138 -13 13 -269 18 -281 5z"/>
<path d="M4110 10204 c0 -5 13 -26 30 -46 16 -20 34 -47 39 -60 8 -19 10 -19
10 -4 1 10 -17 41 -39 68 -22 28 -40 47 -40 42z"/>
<path d="M4180 10010 c0 -20 5 -21 87 -18 73 3 87 6 89 21 2 15 -8 17 -87 17
-83 0 -89 -1 -89 -20z"/>
<path d="M4185 9970 c-8 -13 3 -30 19 -30 8 0 16 -9 19 -20 4 -15 14 -20 42
-20 28 0 38 5 42 20 3 11 14 20 24 20 12 0 19 7 19 20 0 18 -7 20 -79 20 -44
0 -83 -4 -86 -10z"/>
<path d="M7427 9833 c-13 -12 -8 -268 5 -281 8 -8 53 -12 138 -12 85 0 130 4
138 12 13 13 18 242 6 272 -5 14 -27 16 -143 16 -76 0 -141 -3 -144 -7z"/>
<path d="M7817 9834 c-13 -13 -8 -269 5 -282 18 -18 262 -17 277 2 8 9 11 57
9 147 l-3 134 -141 3 c-77 1 -143 -1 -147 -4z"/>
<path d="M4017 9794 c-20 -21 14 -24 244 -24 196 0 250 3 247 13 -4 9 -63 13
-244 15 -132 1 -243 -1 -247 -4z"/>
<path d="M8721 9710 c-1 -52 -8 -144 -16 -204 -8 -61 -13 -111 -11 -113 4 -5
25 109 28 153 1 16 5 -32 8 -106 l6 -135 1 180 c0 99 -3 212 -7 250 l-7 70 -2
-95z"/>
<path d="M4110 9675 c-6 -8 -10 -22 -8 -32 3 -14 15 -19 60 -21 50 -3 57 -6
60 -25 2 -14 -4 -26 -17 -32 -13 -7 -20 -21 -20 -40 0 -17 -4 -36 -8 -42 -12
-19 -93 -17 -101 2 -3 9 -19 15 -41 15 -19 0 -35 -1 -36 -2 -7 -28 -23 -190
-19 -193 3 -2 24 -1 47 2 29 4 43 11 46 24 4 15 14 19 54 19 26 -1 59 -7 73
-15 14 -8 39 -14 55 -14 17 0 41 6 55 14 55 32 115 4 92 -42 -17 -34 -3 -43
64 -43 49 0 66 4 71 16 3 8 1 20 -6 27 -6 6 -11 24 -11 40 0 76 -61 137 -137
137 -45 0 -53 7 -58 48 -1 14 -13 34 -25 44 -37 30 -22 52 40 58 47 4 55 8 58
27 4 31 -28 47 -63 31 -21 -9 -31 -9 -46 0 -23 15 -52 15 -65 2 -6 -6 -22 -6
-44 0 -46 13 -55 13 -70 -5z m157 -101 c-3 -3 -12 -4 -19 -1 -8 3 -5 6 6 6 11
1 17 -2 13 -5z m51 -109 c14 -30 15 -45 4 -45 -4 0 -12 16 -18 35 -13 40 -3
47 14 10z"/>
<path d="M8681 9364 c0 -11 3 -14 6 -6 3 7 2 16 -1 19 -3 4 -6 -2 -5 -13z"/>
<path d="M8671 9324 c0 -11 3 -14 6 -6 3 7 2 16 -1 19 -3 4 -6 -2 -5 -13z"/>
<path d="M8723 9255 c0 -27 2 -38 4 -22 2 15 2 37 0 50 -2 12 -4 0 -4 -28z"/>
<path d="M8656 9264 c-4 -14 -5 -28 -3 -31 3 -2 8 8 11 23 4 14 5 28 3 31 -3
2 -8 -8 -11 -23z"/>
<path d="M4432 9177 c-18 -29 -32 -62 -32 -73 0 -35 28 -64 64 -64 75 0 92 61
41 143 -17 26 -32 47 -35 47 -3 0 -20 -24 -38 -53z m8 -67 c0 -42 -14 -54 -25
-20 -5 17 9 60 20 60 3 0 5 -18 5 -40z"/>
<path d="M8712 9175 c0 -16 2 -22 5 -12 2 9 2 23 0 30 -3 6 -5 -1 -5 -18z"/>
<path d="M6884 9148 c-4 -6 -3 -8 4 -4 14 8 147 -36 147 -49 0 -6 -4 -8 -10
-7 -5 2 -7 0 -3 -3 4 -4 3 -17 -3 -29 -6 -12 3 -6 21 14 l30 35 -82 27 c-94
32 -94 32 -104 16z"/>
<path d="M5049 9139 c-47 -17 -54 -54 -33 -178 13 -80 15 -120 8 -147 -8 -35
-13 -38 -59 -49 -95 -21 -125 -52 -125 -127 0 -30 -8 -60 -21 -83 -16 -27 -20
-45 -15 -78 4 -23 8 -73 10 -112 4 -76 18 -164 29 -181 4 -7 0 -25 -8 -41 -22
-44 -33 -117 -41 -260 -7 -145 6 -223 54 -321 36 -75 117 -156 188 -189 48
-22 66 -25 124 -21 45 4 82 13 111 29 39 22 44 29 47 64 5 65 39 106 116 136
l41 17 6 293 c9 408 28 599 63 612 7 3 21 38 31 79 20 80 99 317 121 361 8 15
12 27 9 27 -12 0 -125 -66 -171 -100 -28 -21 -72 -69 -98 -107 -48 -71 -62
-121 -58 -213 3 -94 1 -122 -10 -143 -6 -12 -12 -43 -13 -69 -1 -32 -8 -58
-23 -78 -14 -18 -22 -44 -22 -68 0 -25 -8 -49 -21 -66 -20 -26 -68 -56 -89
-56 -19 0 -10 39 10 45 29 9 53 61 46 97 -4 23 -1 34 15 47 24 19 39 104 20
115 -8 5 -5 13 9 24 28 23 36 82 17 121 -14 28 -14 36 -1 66 8 19 14 45 14 57
0 36 -36 87 -75 105 l-35 17 0 111 c0 121 -9 162 -48 214 -19 26 -79 64 -94
60 -2 0 -15 -5 -29 -10z m92 -40 c21 -21 49 -79 49 -101 0 -7 -11 10 -24 37
-29 63 -46 77 -88 73 l-33 -3 1 -80 c0 -49 -2 -70 -7 -55 -12 40 -10 125 3
138 19 19 76 14 99 -9z m59 -169 c0 -41 -4 -51 -22 -61 -20 -11 -21 -10 -11 3
7 8 16 36 19 62 4 25 8 46 10 46 2 0 4 -22 4 -50z m-136 -102 c-3 -21 -11 -41
-16 -44 -7 -4 -8 -2 -4 5 4 6 8 42 8 79 1 58 2 62 9 32 5 -19 6 -52 3 -72z
m-26 -85 c-10 -2 -28 -2 -40 0 -13 2 -5 4 17 4 22 1 32 -1 23 -4z m100 0 c-16
-2 -40 -2 -55 0 -16 2 -3 4 27 4 30 0 43 -2 28 -4z m-171 -9 c-3 -3 -12 -4
-19 -1 -8 3 -5 6 6 6 11 1 17 -2 13 -5z m308 -27 c11 -12 13 -16 6 -9 -21 18
-33 15 -23 -5 5 -10 6 -27 1 -38 -8 -21 -7 -23 -13 48 -1 6 -14 18 -31 25
l-30 12 35 -5 c19 -3 44 -15 55 -28z m-370 1 c-19 -18 -27 -36 -32 -77 -3 -30
-12 -66 -20 -80 -15 -30 -17 -79 -4 -114 5 -14 7 -35 4 -48 -5 -17 -10 -6 -20
45 -13 63 -13 70 7 110 11 23 20 59 20 80 0 40 22 91 42 99 27 11 28 6 3 -15z
m175 -98 c11 -7 4 -10 -27 -10 -50 0 -59 -19 -10 -21 31 -2 32 -2 3 -6 -33 -5
-49 7 -40 30 7 19 50 23 74 7z m148 -7 c-10 -2 -28 -2 -40 0 -13 2 -5 4 17 4
22 1 32 -1 23 -4z m-75 -40 c-13 -2 -33 -2 -45 0 -13 2 -3 4 22 4 25 0 35 -2
23 -4z m112 -15 c14 -6 25 -18 25 -27 0 -12 -3 -11 -13 3 -8 10 -31 22 -53 26
-30 6 -33 8 -12 9 15 0 39 -4 53 -11z m-95 -118 l65 -7 -70 -1 c-38 0 -88 3
-110 7 l-40 9 45 0 c25 0 74 -4 110 -8z m27 -47 c-20 -2 -52 -2 -70 0 -17 2 0
4 38 4 39 0 53 -2 32 -4z m-353 -38 c-4 -8 -8 -15 -10 -15 -2 0 -4 7 -4 15 0
8 4 15 10 15 5 0 7 -7 4 -15z m26 -113 c0 -36 6 -50 33 -77 30 -30 38 -33 75
-28 50 7 56 -3 10 -15 -46 -12 -81 8 -114 63 -19 33 -25 54 -21 75 4 16 2 32
-3 35 -6 3 -10 14 -10 23 1 39 29 -35 30 -76z m309 42 c2 -2 -36 -4 -84 -4
-105 0 -105 -15 0 -29 60 -7 64 -9 25 -10 -48 -1 -120 15 -120 27 0 23 27 30
99 25 42 -3 78 -7 80 -9z m49 -61 c5 -10 7 -25 4 -33 -6 -20 -33 -50 -44 -50
-4 0 1 9 12 20 28 28 26 67 -2 73 l-23 4 22 2 c12 0 26 -7 31 -16z m-68 -83
c10 -6 2 -7 -25 -3 -49 7 -58 13 -19 13 16 0 36 -5 44 -10z"/>
<path d="M8702 9110 c0 -14 2 -19 5 -12 2 6 2 18 0 25 -3 6 -5 1 -5 -13z"/>
<path d="M7105 9049 c-34 -41 -98 -168 -136 -273 -43 -114 -81 -278 -69 -290
6 -6 10 -75 10 -162 l0 -152 78 5 c122 9 194 -26 233 -112 33 -71 20 -145 -36
-220 -19 -25 -30 -45 -25 -45 25 0 232 99 338 162 142 85 282 187 282 209 0 8
-16 85 -35 170 -76 331 -144 477 -270 577 -57 45 -98 67 -216 115 -127 52
-123 52 -154 16z"/>
<path d="M8692 9055 c0 -16 2 -22 5 -12 2 9 2 23 0 30 -3 6 -5 -1 -5 -18z"/>
<path d="M8590 9069 c0 -2 -9 -28 -20 -57 -11 -30 -16 -51 -11 -48 11 7 43 98
36 104 -3 3 -5 3 -5 1z"/>
<path d="M6790 8988 c-29 -64 -47 -117 -37 -108 9 8 76 170 71 170 -3 0 -18
-28 -34 -62z"/>
<path d="M8682 9000 c0 -14 2 -19 5 -12 2 6 2 18 0 25 -3 6 -5 1 -5 -13z"/>
<path d="M5770 9000 c-8 -5 -12 -12 -9 -15 4 -3 12 1 19 10 14 17 11 19 -10 5z"/>
<path d="M3989 8970 c-39 -25 15 -30 267 -28 222 3 259 5 259 18 0 13 -36 15
-256 17 -141 0 -262 -3 -270 -7z"/>
<path d="M8671 8954 c0 -11 3 -14 6 -6 3 7 2 16 -1 19 -3 4 -6 -2 -5 -13z"/>
<path d="M6947 8925 c-24 -50 -20 -58 4 -12 11 22 19 41 17 43 -3 2 -12 -12
-21 -31z"/>
<path d="M5726 8915 c-9 -26 -7 -32 5 -12 6 10 9 21 6 23 -2 3 -7 -2 -11 -11z"/>
<path d="M8661 8914 c0 -11 3 -14 6 -6 3 7 2 16 -1 19 -3 4 -6 -2 -5 -13z"/>
<path d="M5826 8905 c-3 -9 -6 -26 -5 -38 1 -16 4 -12 10 12 10 34 6 55 -5 26z"/>
<path d="M5680 8784 c-36 -112 -63 -224 -56 -231 2 -3 10 22 16 54 7 32 28
105 47 162 19 57 32 105 29 108 -2 3 -19 -39 -36 -93z"/>
<path d="M8475 8810 c-14 -27 -23 -50 -20 -50 2 0 16 23 30 50 14 28 23 50 20
50 -2 0 -16 -22 -30 -50z"/>
<path d="M8636 8824 c-4 -14 -5 -28 -3 -31 3 -2 8 8 11 23 4 14 5 28 3 31 -3
2 -8 -8 -11 -23z"/>
<path d="M6906 8825 c-9 -26 -7 -32 5 -12 6 10 9 21 6 23 -2 3 -7 -2 -11 -11z"/>
<path d="M4143 8823 c-13 -2 -23 -8 -23 -11 0 -4 29 -36 64 -71 62 -62 64 -65
51 -90 -17 -34 -54 -67 -84 -76 -20 -6 -33 3 -87 56 -71 70 -80 68 -72 -22 4
-35 14 -60 35 -86 52 -65 77 -78 155 -80 l71 -2 111 -110 c61 -61 118 -111
126 -111 27 0 70 52 70 86 0 28 -14 45 -105 132 -101 94 -105 100 -95 126 24
65 2 165 -46 207 -45 39 -122 63 -171 52z m187 -353 c0 -5 -2 -10 -4 -10 -3 0
-8 5 -11 10 -3 6 -1 10 4 10 6 0 11 -4 11 -10z"/>
<path d="M5780 8756 c-7 -24 -10 -50 -8 -58 3 -7 10 11 17 40 16 65 9 80 -9
18z"/>
<path d="M6876 8734 c-10 -31 -16 -58 -14 -60 3 -2 12 21 22 52 10 31 16 58
14 60 -3 2 -12 -21 -22 -52z"/>
<path d="M8430 8730 c-6 -11 -8 -20 -6 -20 3 0 10 9 16 20 6 11 8 20 6 20 -3
0 -10 -9 -16 -20z"/>
<path d="M8400 8680 c-6 -11 -8 -20 -6 -20 3 0 10 9 16 20 6 11 8 20 6 20 -3
0 -10 -9 -16 -20z"/>
<path d="M6665 8640 c-4 -17 -5 -34 -2 -36 2 -3 7 10 11 27 3 18 4 34 2 36 -2
3 -7 -10 -11 -27z"/>
<path d="M8576 8645 c-9 -26 -7 -32 5 -12 6 10 9 21 6 23 -2 3 -7 -2 -11 -11z"/>
<path d="M8345 8594 c-9 -15 -12 -23 -6 -20 11 7 35 46 28 46 -3 0 -12 -12
-22 -26z"/>
<path d="M8556 8595 c-9 -26 -7 -32 5 -12 6 10 9 21 6 23 -2 3 -7 -2 -11 -11z"/>
<path d="M5738 8545 c-3 -14 -1 -25 3 -25 5 0 9 11 9 25 0 14 -2 25 -4 25 -2
0 -6 -11 -8 -25z"/>
<path d="M8288 8513 c-156 -217 -393 -444 -625 -598 -70 -46 -95 -68 -53 -45
95 51 293 206 410 321 115 114 327 369 307 369 -3 0 -20 -21 -39 -47z"/>
<path d="M8532 8535 c-17 -37 -14 -45 4 -12 9 16 14 31 11 33 -2 2 -9 -7 -15
-21z"/>
<path d="M6816 8533 c-6 -14 -5 -15 5 -6 7 7 10 15 7 18 -3 3 -9 -2 -12 -12z"/>
<path d="M8467 8395 c-26 -52 -45 -95 -42 -95 7 0 97 181 93 186 -2 2 -25 -39
-51 -91z"/>
<path d="M5582 8410 c0 -14 2 -19 5 -12 2 6 2 18 0 25 -3 6 -5 1 -5 -13z"/>
<path d="M5963 8423 c125 -2 329 -2 455 0 125 1 22 2 -228 2 -250 0 -353 -1
-227 -2z"/>
<path d="M6772 8423 c35 -4 37 -6 41 -46 l4 -42 1 48 2 47 -42 -2 -43 -1 37
-4z"/>
<path d="M5645 8398 c-27 -15 -35 -28 -35 -60 0 -29 31 -58 63 -58 22 0 67 43
67 65 0 19 -44 65 -62 65 -7 0 -22 -6 -33 -12z"/>
<path d="M6639 8382 c-26 -22 -31 -75 -8 -97 45 -44 119 -13 119 50 0 58 -64
85 -111 47z"/>
<path d="M5565 8267 c-4 -53 -5 -101 -3 -109 3 -7 8 34 12 91 4 57 5 105 3
108 -3 2 -8 -38 -12 -90z"/>
<path d="M6033 8273 c71 -2 183 -2 250 0 67 1 10 3 -128 3 -137 0 -192 -2
-122 -3z"/>
<path d="M8337 8168 c-37 -57 -83 -125 -103 -153 -20 -27 -24 -36 -10 -20 45
52 194 275 183 275 -2 0 -34 -46 -70 -102z"/>
<path d="M6810 8211 c0 -30 -5 -51 -12 -54 -8 -3 -6 -6 5 -6 14 -1 17 8 17 54
0 30 -2 55 -5 55 -3 0 -5 -22 -5 -49z"/>
<path d="M5826 8238 c3 -4 33 -8 67 -7 72 1 66 6 -15 12 -31 2 -55 0 -52 -5z"/>
<path d="M6433 8233 c9 -2 25 -2 35 0 9 3 1 5 -18 5 -19 0 -27 -2 -17 -5z"/>
<path d="M6078 8223 c57 -2 147 -2 200 0 53 1 7 3 -103 3 -110 0 -154 -2 -97
-3z"/>
<path d="M6758 8143 c7 -3 16 -2 19 1 4 3 -2 6 -13 5 -11 0 -14 -3 -6 -6z"/>
<path d="M4105 8130 c-166 -6 -169 -24 -6 -28 l120 -3 3 -150 c3 -145 2 -150
-19 -169 -13 -11 -23 -31 -23 -44 0 -22 -5 -24 -75 -31 -80 -7 -119 -28 -135
-71 -21 -54 -21 -54 280 -54 308 0 303 -1 276 65 -18 43 -36 52 -124 60 -71 7
-72 8 -72 36 0 18 -8 34 -20 41 -23 14 -25 50 -13 221 l6 97 108 0 c62 0 110
4 114 10 3 6 0 12 -7 14 -23 8 -278 11 -413 6z"/>
<path d="M6708 8133 c7 -3 16 -2 19 1 4 3 -2 6 -13 5 -11 0 -14 -3 -6 -6z"/>
<path d="M6658 8123 c7 -3 16 -2 19 1 4 3 -2 6 -13 5 -11 0 -14 -3 -6 -6z"/>
<path d="M6618 8113 c7 -3 16 -2 19 1 4 3 -2 6 -13 5 -11 0 -14 -3 -6 -6z"/>
<path d="M5554 7865 c0 -126 2 -177 3 -112 2 65 2 168 0 230 -1 62 -3 9 -3
-118z"/>
<path d="M6470 8070 c-8 -5 -10 -10 -5 -10 6 0 17 5 25 10 8 5 11 10 5 10 -5
0 -17 -5 -25 -10z"/>
<path d="M7038 8063 c7 -3 16 -2 19 1 4 3 -2 6 -13 5 -11 0 -14 -3 -6 -6z"/>
<path d="M6388 8034 c-27 -13 -48 -27 -48 -29 0 -5 99 42 109 51 13 11 -20 0
-61 -22z"/>
<path d="M6958 8053 c7 -3 16 -2 19 1 4 3 -2 6 -13 5 -11 0 -14 -3 -6 -6z"/>
<path d="M7094 8042 c6 -8 13 -32 17 -55 l6 -42 2 36 c1 23 -6 44 -16 56 -10
10 -14 13 -9 5z"/>
<path d="M6895 8040 c-13 -5 -14 -9 -5 -9 8 0 24 4 35 9 13 5 14 9 5 9 -8 0
-24 -4 -35 -9z"/>
<path d="M6738 7993 c7 -3 16 -2 19 1 4 3 -2 6 -13 5 -11 0 -14 -3 -6 -6z"/>
<path d="M6258 7960 c-27 -17 -48 -32 -48 -35 0 -3 23 9 50 26 28 17 50 33 50
35 0 6 -2 5 -52 -26z"/>
<path d="M6688 7983 c6 -2 18 -2 25 0 6 3 1 5 -13 5 -14 0 -19 -2 -12 -5z"/>
<path d="M6615 7970 c-25 -11 1 -11 35 0 20 6 21 8 5 8 -11 0 -29 -3 -40 -8z"/>
<path d="M8095 7850 c-103 -114 -203 -208 -317 -300 -38 -29 -68 -56 -68 -58
0 -5 4 -2 105 79 89 71 277 255 344 337 23 28 41 52 39 52 -2 0 -48 -49 -103
-110z"/>
<path d="M6440 7904 c-78 -37 -261 -155 -282 -183 -7 -8 10 1 37 21 103 74
152 104 245 150 52 26 90 48 85 48 -6 0 -44 -16 -85 -36z"/>
<path d="M7100 7932 c0 -7 -19 -31 -42 -54 -37 -36 -39 -39 -10 -19 36 25 68
68 58 78 -3 3 -6 1 -6 -5z"/>
<path d="M6179 7903 c-13 -16 -12 -17 4 -4 9 7 17 15 17 17 0 8 -8 3 -21 -13z"/>
<path d="M6123 7864 l-28 -26 33 22 c29 20 39 30 28 30 -3 0 -18 -12 -33 -26z"/>
<path d="M7435 7784 c-66 -36 -109 -62 -95 -58 39 10 220 109 220 120 0 5 9
10 -125 -62z"/>
<path d="M6005 7783 c-62 -43 -69 -50 -30 -30 29 15 95 67 85 66 -3 0 -27 -16
-55 -36z"/>
<path d="M6825 7753 c-64 -27 -86 -40 -45 -28 35 11 127 53 115 53 -5 0 -37
-11 -70 -25z"/>
<path d="M5890 7715 c-14 -8 -20 -14 -14 -15 5 0 19 7 30 15 24 18 16 19 -16
0z"/>
<path d="M6694 7686 c-19 -19 -34 -42 -34 -52 1 -13 5 -9 14 12 8 17 29 40 47
52 19 12 28 22 21 22 -8 0 -29 -15 -48 -34z"/>
<path d="M6075 7667 c-33 -23 -87 -56 -120 -74 -33 -18 -56 -33 -52 -33 24 0
217 115 232 140 9 15 5 13 -60 -33z"/>
<path d="M7171 7664 c-72 -27 -91 -39 -46 -28 35 8 135 52 120 53 -5 0 -39
-11 -74 -25z"/>
<path d="M5705 7650 c-13 -5 -14 -9 -5 -9 8 0 24 4 35 9 13 5 14 9 5 9 -8 0
-24 -4 -35 -9z"/>
<path d="M5658 7633 c7 -3 16 -2 19 1 4 3 -2 6 -13 5 -11 0 -14 -3 -6 -6z"/>
<path d="M6960 7599 c-121 -32 -106 -39 19 -9 79 19 137 41 101 38 -8 0 -62
-13 -120 -29z"/>
<path d="M6676 7597 c9 -25 57 -38 120 -34 l59 3 -66 2 c-50 2 -73 7 -93 23
-18 14 -24 16 -20 6z"/>
<path d="M3987 7510 c-18 -46 -6 -46 13 -1 6 17 19 32 28 34 13 4 11 5 -4 6
-16 1 -25 -9 -37 -39z"/>
<path d="M4118 7543 c18 -2 45 -2 60 0 15 2 0 4 -33 4 -33 0 -45 -2 -27 -4z"/>
<path d="M4418 7543 l72 -4 35 -69 c19 -39 37 -70 40 -70 3 0 -12 34 -32 75
l-37 75 -76 -2 -75 -2 73 -3z"/>
<path d="M5835 7540 c-13 -6 -15 -9 -5 -9 8 0 22 4 30 9 18 12 2 12 -25 0z"/>
<path d="M4150 7501 c-5 -11 -10 -30 -9 -43 1 -25 4 -19 13 25 11 47 28 31 22
-20 l-5 -48 10 40 c14 59 -7 91 -31 46z"/>
<path d="M4342 7506 c8 -7 20 -39 27 -71 16 -69 23 -67 14 4 -6 50 -23 81 -44
81 -6 0 -4 -6 3 -14z"/>
<path d="M4442 7500 c7 -10 14 -18 15 -16 6 6 -9 36 -18 36 -5 0 -4 -9 3 -20z"/>
<path d="M4076 7470 c-9 -22 -16 -46 -16 -53 1 -6 10 10 20 37 11 28 18 51 16
53 -2 2 -11 -14 -20 -37z"/>
<path d="M4416 7490 c3 -14 11 -32 16 -40 6 -10 7 -7 2 10 -3 14 -11 32 -16
40 -6 10 -7 7 -2 -10z"/>
<path d="M5665 7494 c-84 -18 -97 -24 -45 -19 25 2 65 11 90 19 56 17 34 18
-45 0z"/>
<path d="M4037 7465 c-24 -50 -20 -58 4 -12 11 22 19 41 17 43 -3 2 -12 -12
-21 -31z"/>
<path d="M4273 7430 c0 -41 2 -58 4 -37 2 20 2 54 0 75 -2 20 -4 3 -4 -38z"/>
<path d="M4327 7470 c3 -19 1 -30 -6 -30 -6 0 -11 -4 -11 -10 0 -5 7 -7 15 -4
10 4 15 0 15 -12 0 -11 3 -29 6 -41 5 -20 2 -22 -37 -26 l-44 -4 48 -1 49 -2
-7 43 c-9 55 -25 117 -30 117 -3 0 -2 -13 2 -30z"/>
<path d="M7606 7430 c-97 -65 -124 -87 -61 -50 87 51 173 113 153 110 -2 -1
-43 -28 -92 -60z"/>
<path d="M4239 7463 c-1 -10 -3 -28 -4 -40 -1 -13 2 -23 6 -23 5 0 9 18 9 40
0 39 -9 57 -11 23z"/>
<path d="M5528 7463 c6 -2 18 -2 25 0 6 3 1 5 -13 5 -14 0 -19 -2 -12 -5z"/>
<path d="M5472 7448 c-22 -22 -12 -47 31 -76 83 -57 88 -53 10 7 -48 37 -54
57 -20 71 13 5 16 9 7 9 -9 1 -21 -4 -28 -11z"/>
<path d="M3940 7411 c0 -10 19 -25 25 -20 1 2 -3 10 -11 17 -8 7 -14 8 -14 3z"/>
<path d="M4162 7390 c0 -14 2 -19 5 -12 2 6 2 18 0 25 -3 6 -5 1 -5 -13z"/>
<path d="M4048 7363 c7 -3 16 -2 19 1 4 3 -2 6 -13 5 -11 0 -14 -3 -6 -6z"/>
<path d="M4098 7353 c7 -3 16 -2 19 1 4 3 -2 6 -13 5 -11 0 -14 -3 -6 -6z"/>
<path d="M4158 7343 c7 -3 16 -2 19 1 4 3 -2 6 -13 5 -11 0 -14 -3 -6 -6z"/>
<path d="M7454 7334 c-18 -14 -18 -15 4 -4 12 6 22 13 22 15 0 8 -5 6 -26 -11z"/>
<path d="M5585 7322 c14 -15 165 -95 170 -91 2 2 -38 26 -88 52 -51 27 -87 44
-82 39z"/>
<path d="M7405 7310 c-3 -6 1 -7 9 -4 18 7 21 14 7 14 -6 0 -13 -4 -16 -10z"/>
<path d="M7240 7230 c-8 -5 -10 -10 -5 -10 6 0 17 5 25 10 8 5 11 10 5 10 -5
0 -17 -5 -25 -10z"/>
<path d="M7190 7210 c-8 -5 -10 -10 -5 -10 6 0 17 5 25 10 8 5 11 10 5 10 -5
0 -17 -5 -25 -10z"/>
<path d="M7075 7170 c-44 -16 -75 -29 -69 -29 12 -1 155 46 162 54 10 10 -13
3 -93 -25z"/>
<path d="M5900 7170 c8 -5 20 -10 25 -10 6 0 3 5 -5 10 -8 5 -19 10 -25 10 -5
0 -3 -5 5 -10z"/>
<path d="M8904 7170 c-24 -9 -84 -76 -84 -93 0 -6 12 6 26 27 15 22 44 46 67
57 41 18 33 26 -9 9z"/>
<path d="M9081 7143 c17 -15 40 -45 50 -68 21 -46 26 -31 5 19 -7 18 -27 43
-44 55 -42 30 -50 26 -11 -6z"/>
<path d="M5970 7145 c19 -7 42 -13 50 -13 8 0 -1 6 -20 13 -19 7 -42 13 -50
13 -8 0 1 -6 20 -13z"/>
<path d="M1513 7142 c-63 -5 -73 -25 -73 -147 0 -75 4 -106 16 -123 l15 -22
375 0 c206 0 374 -3 374 -6 0 -5 -81 -109 -445 -574 -316 -404 -333 -428 -340
-475 -4 -24 -5 -79 -3 -121 6 -124 -49 -114 612 -114 470 0 565 2 582 14 17
13 19 27 19 125 0 77 -4 114 -13 123 -10 10 -103 14 -408 18 l-395 5 203 260
c112 143 292 372 400 509 118 149 198 261 202 279 10 50 7 185 -5 211 -7 14
-19 28 -28 33 -15 7 -996 12 -1088 5z"/>
<path d="M4560 7129 c-230 -28 -395 -147 -445 -323 -19 -67 -17 -217 3 -251
10 -17 11 -15 4 15 -4 19 -7 78 -7 130 0 82 4 103 27 153 56 120 172 208 324
247 88 23 262 27 358 9 32 -6 60 -8 63 -6 5 6 -112 25 -192 31 -33 2 -94 0
-135 -5z"/>
<path d="M6968 7133 c7 -3 16 -2 19 1 4 3 -2 6 -13 5 -11 0 -14 -3 -6 -6z"/>
<path d="M6900 7120 c-20 -6 -21 -8 -5 -8 11 0 29 3 40 8 25 11 -1 11 -35 0z"/>
<path d="M6838 7103 c6 -2 18 -2 25 0 6 3 1 5 -13 5 -14 0 -19 -2 -12 -5z"/>
<path d="M6788 7093 c6 -2 18 -2 25 0 6 3 1 5 -13 5 -14 0 -19 -2 -12 -5z"/>
<path d="M4931 7086 c2 -2 32 -15 65 -29 66 -26 148 -77 125 -77 -11 0 -11 -3
-1 -15 18 -21 35 -19 19 3 -13 15 -12 16 4 3 9 -7 17 -22 17 -33 0 -22 -95
-167 -115 -174 -8 -3 -34 6 -59 21 -25 15 -46 25 -46 22 0 -10 81 -57 98 -57
24 0 132 158 132 193 0 29 -70 80 -165 123 -49 21 -86 31 -74 20z"/>
<path d="M6238 7083 c7 -3 16 -2 19 1 4 3 -2 6 -13 5 -11 0 -14 -3 -6 -6z"/>
<path d="M6718 7083 c6 -2 18 -2 25 0 6 3 1 5 -13 5 -14 0 -19 -2 -12 -5z"/>
<path d="M6328 7073 c18 -2 45 -2 60 0 15 2 0 4 -33 4 -33 0 -45 -2 -27 -4z"/>
<path d="M6618 7073 c12 -2 30 -2 40 0 9 3 -1 5 -23 4 -22 0 -30 -2 -17 -4z"/>
<path d="M9142 6990 c-3 -50 -33 -94 -83 -118 -24 -12 -37 -22 -28 -22 26 0
81 42 102 77 11 20 17 45 14 65 l-4 33 -1 -35z"/>
<path d="M8815 6976 c2 -22 9 -44 15 -50 7 -7 8 -2 1 19 -5 17 -12 39 -15 50
-3 11 -3 2 -1 -19z"/>
<path d="M8850 6896 c0 -11 64 -46 85 -46 12 1 5 6 -18 14 -20 8 -44 19 -52
26 -8 7 -15 10 -15 6z"/>
<path d="M4628 6883 c17 -2 47 -2 65 0 17 2 3 4 -33 4 -36 0 -50 -2 -32 -4z"/>
<path d="M4795 6861 c33 -10 69 -22 80 -26 13 -5 17 -5 10 2 -17 17 -94 43
-123 42 -19 0 -8 -6 33 -18z"/>
<path d="M4459 6821 c-22 -21 -39 -45 -39 -52 1 -8 7 -2 16 13 8 15 31 39 52
53 20 14 31 25 23 25 -7 0 -31 -17 -52 -39z"/>
<path d="M3165 6671 c-208 -52 -351 -186 -411 -386 -25 -82 -25 -248 0 -330
57 -192 210 -339 402 -389 79 -20 248 -21 333 -1 193 46 349 195 407 390 25
82 25 248 0 330 -89 297 -409 466 -731 386z m281 -260 c124 -55 194 -209 164
-358 -22 -108 -73 -178 -164 -225 -64 -34 -174 -32 -248 5 -109 53 -162 148
-162 287 0 127 47 222 139 275 80 47 186 53 271 16z"/>
<path d="M4411 6674 c0 -11 3 -14 6 -6 3 7 2 16 -1 19 -3 4 -6 -2 -5 -13z"/>
<path d="M5826 6682 c-17 -4 35 -7 115 -7 112 -1 154 -5 188 -18 24 -9 46 -15
48 -13 2 2 -18 12 -44 21 -51 19 -253 30 -307 17z"/>
<path d="M7243 6683 c20 -2 54 -2 75 0 20 2 3 4 -38 4 -41 0 -58 -2 -37 -4z"/>
<path d="M9722 6674 c-29 -7 -65 -21 -80 -29 -15 -9 -20 -14 -12 -11 82 27
132 40 175 46 48 7 48 8 10 8 -22 0 -64 -6 -93 -14z"/>
<path d="M9921 6686 c2 -2 33 -6 69 -9 39 -3 55 -2 40 3 -25 8 -117 13 -109 6z"/>
<path d="M10863 6683 c26 -2 68 -2 95 0 26 2 4 3 -48 3 -52 0 -74 -1 -47 -3z"/>
<path d="M7133 6663 c-62 -21 -178 -131 -160 -149 3 -3 15 11 27 31 28 46 75
81 147 111 64 26 53 31 -14 7z"/>
<path d="M7382 6666 c7 -8 15 -12 17 -11 5 6 -10 25 -20 25 -5 0 -4 -6 3 -14z"/>
<path d="M10704 6655 c-85 -32 -130 -63 -195 -132 -103 -107 -140 -206 -144
-383 l-3 -125 7 115 c10 135 20 180 68 277 59 123 180 218 325 257 30 8 42 15
28 15 -14 0 -53 -11 -86 -24z"/>
<path d="M11060 6665 c24 -8 46 -13 48 -11 5 5 -59 26 -77 25 -9 0 4 -7 29
-14z"/>
<path d="M5720 6647 c-65 -27 -133 -72 -177 -119 -34 -35 -103 -145 -103 -162
0 -6 15 15 32 46 59 110 146 182 298 246 14 6 21 11 15 11 -5 0 -35 -10 -65
-22z"/>
<path d="M6660 6651 c-14 -27 -14 -1041 0 -1041 6 0 10 9 10 20 0 11 5 20 10
20 6 0 10 9 10 20 0 11 -4 20 -10 20 -7 0 -10 169 -10 486 l0 485 134 -3 c74
-2 132 0 129 5 -2 4 -62 7 -133 7 -118 0 -130 -2 -140 -19z"/>
<path d="M7530 6655 c-10 -12 -7 -28 16 -85 15 -38 29 -68 31 -66 2 2 -8 32
-22 67 -14 35 -23 69 -21 76 4 10 40 13 141 13 120 0 136 -2 142 -17 28 -82
66 -174 69 -170 6 6 -54 167 -68 184 -16 20 -271 18 -288 -2z"/>
<path d="M8392 6658 c-6 -6 -12 -17 -12 -22 0 -6 5 -3 11 7 9 15 27 17 144 17
130 0 134 -1 138 -22 5 -20 5 -20 4 2 l-2 25 -135 3 c-97 2 -139 -1 -148 -10z"/>
<path d="M8847 6663 c-3 -5 57 -8 133 -8 76 0 136 3 133 8 -2 4 -62 7 -133 7
-71 0 -131 -3 -133 -7z"/>
<path d="M10100 6650 c8 -5 20 -10 25 -10 6 0 3 5 -5 10 -8 5 -19 10 -25 10
-5 0 -3 -5 5 -10z"/>
<path d="M4429 6631 c18 -33 83 -80 140 -102 29 -11 55 -18 58 -16 2 3 -25 15
-59 28 -41 15 -78 38 -106 66 -24 24 -38 35 -33 24z"/>
<path d="M11170 6619 c80 -44 136 -103 181 -193 43 -86 54 -87 13 0 -33 69
-113 157 -178 195 -28 16 -55 29 -61 29 -5 0 15 -14 45 -31z"/>
<path d="M6943 6580 c0 -36 2 -50 4 -32 2 17 2 47 0 65 -2 17 -4 3 -4 -33z"/>
<path d="M8831 6174 c0 -258 4 -460 8 -449 10 25 8 901 -2 911 -4 4 -7 -204
-6 -462z"/>
<path d="M9120 6115 l-5 -530 -85 -6 -85 -5 81 -2 c59 -1 85 2 93 12 8 9 10
159 9 537 l-3 524 -5 -530z"/>
<path d="M10140 6636 c0 -2 7 -7 16 -10 8 -3 12 -2 9 4 -6 10 -25 14 -25 6z"/>
<path d="M6210 6626 c0 -2 16 -14 35 -26 19 -12 32 -27 29 -32 -4 -6 -2 -8 4
-4 17 10 81 -62 118 -134 39 -78 46 -72 7 6 -30 62 -112 153 -161 178 -18 9
-32 15 -32 12z"/>
<path d="M9544 6592 c-90 -66 -172 -175 -199 -266 -20 -67 -18 -81 4 -27 11
27 20 39 23 30 4 -10 8 -11 18 -3 9 9 9 17 0 33 -9 18 -6 30 16 71 26 47 110
136 164 172 14 9 22 17 19 17 -3 1 -24 -12 -45 -27z"/>
<path d="M10185 6613 c6 -5 33 -26 60 -48 41 -32 45 -33 23 -9 -15 16 -42 38
-60 48 -18 10 -28 15 -23 9z"/>
<path d="M7386 6527 c-5 -48 -6 -90 -3 -93 7 -8 20 115 15 151 -2 17 -8 -10
-12 -58z"/>
<path d="M8616 6489 c-20 -50 -35 -93 -33 -95 2 -2 20 37 40 88 21 50 36 92
34 94 -2 2 -20 -37 -41 -87z"/>
<path d="M8341 6529 c-6 -18 -9 -34 -7 -36 2 -2 9 10 15 28 6 18 9 34 7 36 -2
2 -9 -10 -15 -28z"/>
<path d="M7000 6529 c0 -5 5 -7 10 -4 6 3 10 8 10 11 0 2 -4 4 -10 4 -5 0 -10
-5 -10 -11z"/>
<path d="M4130 6524 c0 -6 7 -19 16 -30 14 -18 14 -18 3 6 -14 31 -19 36 -19
24z"/>
<path d="M4779 6459 c63 -21 116 -37 118 -35 5 5 -207 76 -222 75 -6 0 41 -18
104 -40z"/>
<path d="M7580 6485 c0 -5 5 -17 10 -25 5 -8 10 -10 10 -5 0 6 -5 17 -10 25
-5 8 -10 11 -10 5z"/>
<path d="M5871 6469 c-18 -6 -31 -12 -29 -14 2 -3 24 1 49 9 49 16 33 20 -20
5z"/>
<path d="M8255 6298 c-77 -207 -81 -221 -66 -197 5 9 28 65 50 125 22 60 51
140 66 178 14 38 24 71 22 73 -3 2 -35 -78 -72 -179z"/>
<path d="M10831 6469 c-53 -16 -31 -19 29 -4 30 7 44 13 30 13 -14 0 -40 -4
-59 -9z"/>
<path d="M10239 6447 c-22 -20 -45 -57 -35 -57 3 0 19 18 36 40 36 45 36 49
-1 17z"/>
<path d="M11025 6443 c17 -8 45 -29 64 -47 l34 -31 -18 28 c-16 25 -81 68
-102 67 -4 -1 6 -8 22 -17z"/>
<path d="M6075 6438 c57 -31 98 -87 114 -155 7 -30 9 -32 10 -12 2 41 -46 124
-87 153 -21 14 -42 26 -48 26 -5 0 0 -6 11 -12z"/>
<path d="M9828 6443 c7 -3 16 -2 19 1 4 3 -2 6 -13 5 -11 0 -14 -3 -6 -6z"/>
<path d="M9953 6443 c9 -2 23 -2 30 0 6 3 -1 5 -18 5 -16 0 -22 -2 -12 -5z"/>
<path d="M7157 6425 c-21 -7 -42 -17 -45 -21 -4 -4 2 -4 13 0 56 22 96 28 155
23 39 -3 55 -2 40 3 -40 13 -122 10 -163 -5z"/>
<path d="M7600 6437 c0 -6 193 -489 307 -767 l39 -95 54 -1 c50 -1 51 -1 8 3
-25 2 -51 9 -56 16 -5 7 -60 138 -122 292 -232 577 -230 573 -230 552z"/>
<path d="M7900 6433 c0 -17 41 -125 46 -120 2 2 -7 33 -20 68 -14 35 -25 59
-26 52z"/>
<path d="M10010 6430 c8 -5 20 -10 25 -10 6 0 3 5 -5 10 -8 5 -19 10 -25 10
-5 0 -3 -5 5 -10z"/>
<path d="M10744 6425 c-12 -8 -24 -12 -28 -10 -3 3 -4 2 -1 -1 2 -4 -5 -21
-17 -38 l-21 -31 24 25 c13 14 35 35 49 47 28 25 25 30 -6 8z"/>
<path d="M9739 6409 l-24 -20 30 17 c39 24 40 24 28 24 -6 0 -21 -9 -34 -21z"/>
<path d="M4214 6401 c11 -12 26 -19 33 -17 7 3 12 0 10 -6 -2 -12 107 -77 128
-78 6 0 -18 16 -52 36 -35 19 -63 42 -63 50 0 8 -6 14 -12 12 -7 -1 -24 4 -38
11 l-25 14 19 -22z"/>
<path d="M4979 6382 c91 -45 160 -106 200 -175 32 -55 42 -58 15 -4 -41 79
-128 154 -229 197 -74 32 -67 23 14 -18z"/>
<path d="M5736 6378 c-20 -23 -36 -49 -36 -57 1 -12 3 -11 12 4 6 11 24 37 40
58 40 50 28 47 -16 -5z"/>
<path d="M7058 6373 c-47 -39 -56 -51 -86 -113 l-27 -55 -5 -310 -5 -310 -40
-6 -40 -7 45 2 45 1 5 315 c5 305 6 317 29 368 14 32 44 70 73 97 55 49 59 61
6 18z"/>
<path d="M9678 6363 c-21 -23 -63 -89 -45 -73 10 10 77 100 74 100 -2 0 -15
-12 -29 -27z"/>
<path d="M10114 6373 c23 -27 58 -30 77 -5 11 14 11 15 -1 5 -20 -18 -50 -16
-74 5 -21 17 -21 17 -2 -5z"/>
<path d="M8521 6254 c-28 -70 -49 -129 -47 -131 2 -2 26 53 55 123 28 70 49
129 47 131 -2 2 -26 -53 -55 -123z"/>
<path d="M6431 6350 c0 -8 4 -24 9 -35 5 -13 9 -14 9 -5 0 8 -4 24 -9 35 -5
13 -9 14 -9 5z"/>
<path d="M11135 6330 c8 -16 15 -40 15 -54 0 -14 5 -28 11 -32 8 -4 9 4 4 27
-8 36 -32 89 -41 89 -2 0 2 -13 11 -30z"/>
<path d="M5421 6318 c-6 -18 -13 -53 -16 -78 -4 -31 1 -22 14 30 20 77 21 107
2 48z"/>
<path d="M7956 6280 c3 -14 11 -32 16 -40 6 -10 7 -7 2 10 -3 14 -11 32 -16
40 -6 10 -7 7 -2 -10z"/>
<path d="M11402 6280 c0 -14 2 -19 5 -12 2 6 2 18 0 25 -3 6 -5 1 -5 -13z"/>
<path d="M6452 6265 c0 -16 2 -22 5 -12 2 9 2 23 0 30 -3 6 -5 -1 -5 -18z"/>
<path d="M10646 6264 c-4 -15 -3 -31 2 -36 4 -4 121 -7 258 -5 l249 2 -253 3
-254 2 7 30 c8 37 0 40 -9 4z"/>
<path d="M4476 6265 c17 -7 44 -16 60 -20 25 -4 24 -3 -6 8 -19 8 -46 17 -60
20 -19 5 -17 3 6 -8z"/>
<path d="M5682 6260 c0 -14 2 -19 5 -12 2 6 2 18 0 25 -3 6 -5 1 -5 -13z"/>
<path d="M9601 6223 c-6 -21 -10 -67 -9 -103 l1 -65 7 75 c4 41 10 87 15 103
4 15 5 27 2 27 -4 0 -11 -17 -16 -37z"/>
<path d="M11414 6155 c0 -55 1 -76 3 -47 2 29 2 74 0 100 -2 26 -3 2 -3 -53z"/>
<path d="M9315 6175 c-4 -36 -4 -91 -1 -122 7 -58 44 -188 52 -180 2 2 -2 22
-10 44 -23 67 -38 192 -31 260 4 35 4 63 2 63 -3 0 -9 -29 -12 -65z"/>
<path d="M4649 6209 c30 -10 56 -17 58 -15 5 5 -86 36 -101 35 -6 0 13 -9 43
-20z"/>
<path d="M5813 6223 c70 -2 184 -2 255 0 70 1 12 3 -128 3 -140 0 -198 -2
-127 -3z"/>
<path d="M6460 6145 l-5 -80 -385 -5 -385 -5 381 -3 c318 -2 384 0 393 12 8 9
11 42 9 88 l-4 73 -4 -80z"/>
<path d="M7982 6210 c0 -8 8 -33 19 -55 10 -22 16 -29 13 -15 -10 38 -32 87
-32 70z"/>
<path d="M4797 6151 c112 -56 143 -106 123 -197 -11 -47 -71 -106 -133 -128
-25 -8 -34 -15 -22 -15 12 -1 41 9 65 22 99 49 137 171 78 248 -25 34 -116 89
-168 104 -14 3 12 -12 57 -34z"/>
<path d="M5393 6120 c0 -30 2 -43 4 -27 2 15 2 39 0 55 -2 15 -4 2 -4 -28z"/>
<path d="M5219 6005 c-4 -92 -9 -119 -32 -168 -14 -32 -31 -56 -36 -52 -12 7
-30 -25 -24 -41 7 -19 -77 -84 -152 -119 -98 -45 -150 -56 -305 -65 l-135 -8
140 3 c199 5 317 44 422 139 94 85 154 249 134 371 -7 45 -8 38 -12 -60z m-78
-248 c-10 -9 -11 -8 -5 6 3 10 9 15 12 12 3 -3 0 -11 -7 -18z"/>
<path d="M8421 6009 c-23 -56 -40 -103 -38 -105 2 -2 22 42 46 97 23 56 40
103 38 105 -2 2 -22 -42 -46 -97z"/>
<path d="M8161 6049 c-6 -18 -9 -34 -7 -36 2 -2 9 10 15 28 6 18 9 34 7 36 -2
2 -9 -10 -15 -28z"/>
<path d="M10644 6045 c-3 -8 -1 -27 5 -42 10 -26 10 -25 5 9 l-6 38 378 3 379
2 -378 3 c-324 2 -378 0 -383 -13z"/>
<path d="M5401 6030 c-1 -47 56 -220 73 -220 3 0 -5 25 -19 56 -14 31 -31 86
-39 123 -8 36 -15 55 -15 41z"/>
<path d="M5671 6040 c0 -8 4 -24 9 -35 l9 -20 0 20 c0 11 -4 27 -9 35 -9 13
-10 13 -9 0z"/>
<path d="M9602 6030 c0 -14 2 -19 5 -12 2 6 2 18 0 25 -3 6 -5 1 -5 -13z"/>
<path d="M10372 5990 c0 -14 2 -19 5 -12 2 6 2 18 0 25 -3 6 -5 1 -5 -13z"/>
<path d="M8061 5990 c0 -8 4 -22 9 -30 12 -18 12 -2 0 25 -6 13 -9 15 -9 5z"/>
<path d="M4163 5958 c-36 -40 -113 -159 -113 -175 0 -18 56 -71 102 -96 32
-18 32 -18 10 0 -77 60 -92 76 -92 102 0 21 2 23 11 11 9 -12 10 -12 5 4 -8
24 76 153 108 166 14 6 16 9 5 9 -8 1 -25 -9 -36 -21z"/>
<path d="M4238 5948 c12 -13 41 -35 65 -48 51 -28 40 -16 -33 35 -39 27 -48
31 -32 13z"/>
<path d="M8126 5955 c-3 -9 -6 -24 -5 -33 0 -9 5 -4 10 12 9 32 6 48 -5 21z"/>
<path d="M9621 5964 c-2 -36 125 -155 163 -154 6 1 -5 9 -25 20 -35 18 -87 70
-121 120 -9 14 -17 20 -17 14z"/>
<path d="M10660 5964 c0 -7 15 -33 33 -60 33 -50 93 -98 137 -109 14 -3 0 8
-30 25 -58 32 -89 63 -120 120 -11 19 -19 30 -20 24z"/>
<path d="M10381 5953 c-1 -19 37 -117 54 -139 13 -15 13 -12 -1 15 -9 19 -25
58 -35 85 -9 28 -18 46 -18 39z"/>
<path d="M5718 5915 c34 -66 135 -136 194 -134 15 0 9 5 -19 13 -61 20 -108
52 -144 99 -48 62 -53 66 -31 22z"/>
<path d="M8366 5875 c-9 -26 -7 -32 5 -12 6 10 9 21 6 23 -2 3 -7 -2 -11 -11z"/>
<path d="M10119 5871 c-57 -44 -114 -64 -199 -71 l-85 -6 50 -9 c41 -7 62 -4
115 14 56 20 150 74 150 86 0 8 -7 5 -31 -14z"/>
<path d="M10191 5866 c8 -12 34 -43 57 -70 46 -54 50 -70 25 -100 -18 -21 -18
-21 5 -2 35 30 27 56 -41 127 -34 36 -55 56 -46 45z"/>
<path d="M6210 5845 c-30 -19 -50 -35 -44 -35 5 0 34 16 64 35 30 19 51 34 45
34 -5 0 -35 -15 -65 -34z"/>
<path d="M6344 5818 c32 -38 61 -68 63 -68 8 0 -54 74 -88 105 -18 17 -7 0 25
-37z"/>
<path d="M11199 5859 l-24 -21 25 16 c13 9 32 16 41 16 21 0 119 -113 119
-138 0 -11 -17 -34 -37 -51 -21 -17 -35 -30 -31 -31 17 0 78 64 78 82 0 26
-107 148 -130 148 -10 0 -28 -9 -41 -21z"/>
<path d="M9370 5857 c0 -9 61 -103 82 -127 8 -8 29 -28 48 -45 l35 -30 -25 28
c-14 16 -24 37 -22 47 3 18 -33 47 -50 42 -5 -1 -21 19 -38 46 -16 26 -30 43
-30 39z m95 -113 c9 -15 12 -23 6 -20 -11 7 -35 46 -28 46 3 0 12 -12 22 -26z"/>
<path d="M4410 5846 c0 -12 136 -46 184 -45 l51 2 -61 8 c-57 7 -125 22 -160
36 -8 3 -14 3 -14 -1z"/>
<path d="M4703 5803 c9 -2 23 -2 30 0 6 3 -1 5 -18 5 -16 0 -22 -2 -12 -5z"/>
<path d="M6080 5795 c-48 -11 -50 -13 -20 -14 19 0 49 6 65 14 36 16 27 16
-45 0z"/>
<path d="M11045 5795 c-47 -12 -48 -13 -15 -14 19 0 46 6 60 14 30 17 22 17
-45 0z"/>
<path d="M8305 5725 c-16 -36 -26 -67 -23 -70 2 -3 17 25 31 62 35 87 28 93
-8 8z"/>
<path d="M5524 5737 c38 -50 162 -138 193 -137 4 1 -9 10 -30 21 -21 11 -35
24 -32 29 3 6 -1 7 -10 4 -11 -4 -14 -2 -10 9 4 8 -1 17 -10 21 -9 3 -13 2
-10 -4 17 -27 -18 -4 -65 43 -44 43 -49 45 -26 14z"/>
<path d="M10510 5716 c71 -79 229 -158 309 -155 14 0 -2 7 -35 14 -66 14 -140
48 -137 61 2 5 -5 9 -15 10 -9 1 -22 2 -29 3 -6 0 -38 24 -70 53 -43 38 -49
42 -23 14z"/>
<path d="M6406 5725 c-3 -9 -11 -13 -17 -9 -7 4 -9 3 -6 -3 9 -14 -17 -36 -84
-73 -30 -16 -49 -30 -44 -30 34 0 178 110 163 125 -3 3 -8 -1 -12 -10z"/>
<path d="M10210 5655 c-36 -26 -56 -32 -45 -15 3 6 -1 7 -10 3 -12 -4 -13 -8
-5 -13 7 -4 0 -12 -20 -20 -17 -7 -29 -15 -26 -17 6 -6 96 41 126 66 34 28 23
25 -20 -4z"/>
<path d="M4204 5655 c28 -21 163 -72 211 -79 22 -3 31 -3 20 0 -52 15 -174 59
-210 76 -27 13 -34 14 -21 3z"/>
<path d="M8830 5623 c0 -35 21 -57 47 -50 14 4 13 5 -4 6 -13 0 -23 4 -24 9
-2 22 -10 56 -14 61 -3 2 -5 -9 -5 -26z"/>
<path d="M11245 5633 c-16 -9 -59 -27 -95 -40 -39 -14 -51 -21 -30 -17 37 6
160 59 160 68 0 8 0 8 -35 -11z"/>
<path d="M9570 5635 c0 -12 111 -56 177 -70 37 -8 102 -14 143 -13 75 1 75 1
-25 8 -105 8 -193 29 -257 61 -21 11 -38 17 -38 14z"/>
<path d="M8252 5600 c-8 -13 -26 -20 -59 -23 l-48 -3 52 -2 c44 -2 54 1 63 19
15 27 8 34 -8 9z"/>
<path d="M6185 5590 c-13 -6 -15 -9 -5 -9 8 0 22 4 30 9 18 12 2 12 -25 0z"/>
<path d="M6667 5579 c7 -7 15 -10 18 -7 3 3 -2 9 -12 12 -14 6 -15 5 -6 -5z"/>
<path d="M5788 5573 c7 -3 16 -2 19 1 4 3 -2 6 -13 5 -11 0 -14 -3 -6 -6z"/>
<path d="M6138 5573 c7 -3 16 -2 19 1 4 3 -2 6 -13 5 -11 0 -14 -3 -6 -6z"/>
<path d="M6723 5573 c15 -2 37 -2 50 0 12 2 0 4 -28 4 -27 0 -38 -2 -22 -4z"/>
<path d="M10038 5573 c7 -3 16 -2 19 1 4 3 -2 6 -13 5 -11 0 -14 -3 -6 -6z"/>
<path d="M4473 5563 c9 -2 25 -2 35 0 9 3 1 5 -18 5 -19 0 -27 -2 -17 -5z"/>
<path d="M5833 5563 c9 -2 23 -2 30 0 6 3 -1 5 -18 5 -16 0 -22 -2 -12 -5z"/>
<path d="M5970 5560 l-95 -6 85 -2 c47 0 103 3 125 7 48 10 29 10 -115 1z"/>
<path d="M9983 5563 c9 -2 23 -2 30 0 6 3 -1 5 -18 5 -16 0 -22 -2 -12 -5z"/>
<path d="M11033 5563 c9 -2 25 -2 35 0 9 3 1 5 -18 5 -19 0 -27 -2 -17 -5z"/>
<path d="M10888 5553 c23 -2 61 -2 85 0 23 2 4 4 -43 4 -47 0 -66 -2 -42 -4z"/>
<path d="M5536 5331 c-18 -20 -13 -46 11 -55 33 -13 57 36 31 62 -16 16 -22
15 -42 -7z"/>
<path d="M3680 5161 l0 -179 25 2 c14 0 25 7 25 14 0 16 15 15 30 -3 7 -8 27
-15 45 -15 69 0 114 74 101 164 -12 78 -87 120 -144 80 l-22 -15 0 65 0 66
-30 0 -30 0 0 -179z m150 9 c39 -39 16 -140 -33 -140 -7 0 -23 7 -35 16 -18
12 -22 25 -22 64 0 39 4 52 22 64 30 21 44 20 68 -4z"/>
<path d="M7002 5163 c3 -167 4 -178 22 -181 11 -3 25 3 32 12 10 14 13 15 24
1 23 -28 78 -19 116 19 31 31 34 40 34 91 0 107 -64 161 -142 121 l-28 -15 0
65 0 64 -30 0 -30 0 2 -177z m150 10 c40 -36 12 -143 -37 -143 -29 0 -55 38
-55 80 0 66 51 101 92 63z"/>
<path d="M3072 5158 l3 -173 103 -3 102 -3 0 31 0 30 -75 0 -75 0 0 145 0 145
-30 0 -30 0 2 -172z"/>
<path d="M9710 5292 c0 -22 3 -73 6 -115 7 -72 8 -77 30 -77 23 0 24 4 24 63
0 34 3 86 6 115 l7 52 -37 0 c-35 0 -36 -1 -36 -38z"/>
<path d="M9498 5293 c-11 -3 -18 -14 -18 -30 0 -16 -7 -27 -20 -30 -13 -3 -20
-14 -20 -29 0 -17 6 -24 20 -24 18 0 20 -7 20 -83 0 -69 3 -87 18 -100 35 -32
105 -14 95 23 -4 14 -11 19 -21 15 -29 -11 -42 15 -42 81 l0 64 30 0 c25 0 30
4 30 24 0 19 -6 25 -27 28 -23 2 -29 8 -31 36 -2 17 -6 31 -10 31 -4 -1 -15
-3 -24 -6z"/>
<path d="M3358 5225 c-78 -44 -77 -189 2 -230 40 -21 89 -19 129 6 31 19 33
22 18 36 -13 14 -21 14 -42 5 -37 -17 -69 -15 -88 6 -32 35 -21 42 62 42 44 0
82 4 85 8 10 16 -13 86 -37 109 -30 31 -92 39 -129 18z m96 -54 c26 -28 12
-41 -45 -41 -53 0 -61 10 -32 42 21 23 55 23 77 -1z"/>
<path d="M4003 5224 c-80 -41 -83 -188 -4 -228 95 -50 195 31 176 143 -13 78
-101 122 -172 85z m96 -60 c12 -15 21 -39 21 -54 0 -34 -35 -80 -61 -80 -32 0
-59 36 -59 80 0 72 59 104 99 54z"/>
<path d="M4306 5225 c-33 -18 -39 -19 -31 -5 4 6 -7 10 -24 10 l-31 0 0 -124
0 -125 28 3 c27 3 27 3 30 90 3 78 5 87 27 102 18 12 28 13 44 5 18 -10 21
-23 23 -104 l3 -92 28 -3 27 -3 0 106 c0 99 -2 107 -25 130 -28 29 -58 31 -99
10z"/>
<path d="M4640 5227 c-13 -7 -31 -25 -40 -40 -23 -41 0 -76 65 -96 38 -12 50
-21 50 -36 0 -27 -50 -33 -76 -9 -18 17 -21 17 -36 1 -16 -16 -16 -18 5 -40
33 -33 126 -32 153 2 40 50 11 110 -61 126 -33 7 -55 29 -45 45 8 14 58 13 73
-2 8 -8 15 -8 27 2 23 19 18 30 -20 46 -42 17 -62 18 -95 1z"/>
<path d="M4884 5230 c-30 -12 -62 -56 -70 -95 -14 -75 44 -155 112 -155 46 0
96 26 92 48 -4 17 -15 18 -75 6 -24 -5 -36 -1 -52 15 -35 35 -26 41 59 41 l80
0 0 41 c0 51 -13 75 -50 94 -32 17 -64 18 -96 5z m80 -56 c31 -30 20 -44 -34
-44 -41 0 -50 3 -50 18 0 40 54 57 84 26z"/>
<path d="M5161 5223 c-18 -12 -26 -13 -29 -5 -2 7 -15 12 -28 12 l-24 0 0
-126 0 -125 28 3 c27 3 27 4 30 83 3 87 17 115 59 115 21 0 24 4 21 27 -4 34
-25 39 -57 16z"/>
<path d="M5684 5221 c-51 -32 -70 -121 -39 -181 35 -69 148 -81 192 -21 9 12
7 18 -8 29 -16 11 -22 11 -41 -2 -49 -35 -98 -3 -98 64 0 27 7 47 20 60 24 24
32 25 71 5 23 -12 34 -13 50 -4 l22 11 -26 25 c-34 35 -101 41 -143 14z"/>
<path d="M5944 5230 c-30 -12 -62 -56 -70 -95 -20 -109 93 -192 185 -135 31
20 33 23 18 37 -13 14 -21 14 -42 5 -37 -17 -62 -15 -85 8 -34 34 -24 40 60
40 92 0 98 5 80 69 -17 64 -83 97 -146 71z m80 -56 c30 -30 20 -44 -33 -44
-57 0 -66 8 -45 38 18 26 56 29 78 6z"/>
<path d="M6413 5226 c-33 -15 -40 -30 -24 -55 7 -11 13 -11 32 3 41 28 89 15
89 -23 0 -12 -12 -17 -45 -18 -56 -3 -83 -17 -96 -50 -12 -32 4 -79 32 -93 27
-15 72 -12 97 6 20 14 22 14 22 0 0 -10 9 -16 25 -16 25 0 25 0 25 99 0 89 -2
103 -23 126 -27 32 -88 42 -134 21z m97 -154 c0 -39 -55 -57 -80 -27 -19 22 5
45 46 45 26 0 34 -4 34 -18z"/>
<path d="M7331 5227 c-45 -23 -66 -63 -65 -124 0 -51 3 -58 37 -89 82 -75 197
-19 197 96 0 97 -89 159 -169 117z m89 -57 c41 -41 13 -140 -40 -140 -25 0
-60 46 -60 80 0 34 35 80 61 80 10 0 28 -9 39 -20z"/>
<path d="M7622 5224 c-12 -8 -22 -10 -22 -5 0 6 -14 11 -30 11 l-31 0 3 -122
3 -123 25 0 c24 0 25 2 30 90 5 85 6 90 33 105 27 14 29 14 48 -9 15 -19 19
-39 19 -107 0 -83 0 -84 25 -84 l25 0 0 109 c0 106 -1 110 -26 130 -32 25 -71
27 -102 5z"/>
<path d="M7992 5224 c-12 -8 -22 -10 -22 -5 0 6 -14 11 -30 11 l-31 0 3 -122
3 -123 25 0 c25 0 25 2 28 85 2 72 6 88 23 103 26 21 33 21 53 1 12 -12 16
-37 16 -104 l0 -89 27 2 c27 2 27 3 29 87 2 47 3 88 3 92 2 17 41 29 61 18 17
-9 20 -23 22 -103 l3 -92 28 -3 27 -3 0 106 c0 99 -2 107 -25 130 -29 30 -74
33 -106 6 -23 -19 -24 -19 -48 0 -29 23 -59 24 -89 3z"/>
<path d="M8358 5225 c-54 -31 -75 -122 -43 -185 35 -68 135 -79 188 -20 23 26
27 39 27 90 0 51 -4 64 -28 91 -34 38 -100 49 -144 24z m89 -50 c51 -36 24
-145 -36 -145 -6 0 -20 9 -31 20 -29 29 -28 103 2 124 28 20 38 20 65 1z"/>
<path d="M8654 5225 c-22 -17 -38 -20 -29 -5 4 6 -7 10 -24 10 l-31 0 0 -124
0 -125 28 3 c27 3 27 4 30 88 2 71 6 89 23 104 15 14 24 16 37 8 13 -9 18 -31
22 -105 5 -92 5 -94 30 -94 25 0 25 2 30 93 4 67 9 95 20 102 47 30 70 -11 67
-115 l-2 -80 28 -3 27 -3 0 106 c0 99 -2 107 -25 130 -13 14 -33 25 -44 25
-26 0 -71 -21 -71 -32 0 -5 -12 0 -26 11 -31 25 -63 27 -90 6z"/>
<path d="M9024 5231 c-12 -5 -31 -21 -42 -36 -87 -110 32 -267 149 -198 33 20
35 26 15 42 -11 9 -20 9 -35 2 -30 -17 -59 -13 -81 9 -34 34 -24 40 61 40 l82
0 -6 46 c-3 31 -13 55 -29 70 -27 27 -81 39 -114 25z m80 -63 c21 -29 12 -38
-39 -38 -51 0 -64 13 -39 41 23 25 59 24 78 -3z"/>
<path d="M9288 5226 c-16 -8 -28 -11 -28 -5 0 5 -11 9 -25 9 l-25 0 0 -125 0
-125 25 0 c25 0 25 1 25 85 0 72 3 88 20 105 25 25 42 25 63 2 13 -14 17 -39
17 -105 0 -86 0 -87 25 -87 l25 0 0 109 c0 106 -1 110 -26 130 -31 25 -58 26
-96 7z"/>
<path d="M5281 5148 c65 -183 58 -169 93 -166 30 3 32 7 68 108 21 58 40 113
43 123 5 14 0 17 -24 17 -29 0 -31 -3 -57 -85 -15 -47 -29 -83 -33 -80 -3 4
-17 41 -31 83 -24 73 -27 77 -57 80 l-32 3 30 -83z"/>
<path d="M5530 5111 c0 -118 0 -119 25 -123 13 -3 27 -3 30 0 3 3 5 59 5 124
l0 118 -30 0 -30 0 0 -119z"/>
<path d="M6622 5124 c3 -97 5 -107 27 -125 28 -23 78 -25 109 -3 20 14 22 14
22 0 0 -10 9 -16 25 -16 l25 0 0 125 0 125 -31 0 -30 0 7 -79 c6 -72 5 -80
-15 -100 -51 -51 -81 -16 -81 95 l0 84 -31 0 -31 0 4 -106z"/>
<path d="M1874 5155 c-12 -30 7 -35 139 -33 l132 2 -129 6 c-91 3 -131 9 -134
18 -3 9 91 12 445 12 248 0 453 -3 456 -7 4 -3 1 -13 -6 -22 -10 -14 -10 -14
5 -3 9 8 14 20 11 28 -8 21 -911 21 -919 -1z"/>
<path d="M10041 5156 c-16 -19 10 -39 46 -33 27 4 27 4 -4 6 -22 1 -33 6 -33
16 0 14 49 15 414 13 228 -2 412 0 409 5 -2 4 -188 7 -412 7 -333 0 -411 -3
-420 -14z"/>
<path d="M2348 5123 c18 -2 45 -2 60 0 15 2 0 4 -33 4 -33 0 -45 -2 -27 -4z"/>
<path d="M2708 5123 c7 -3 16 -2 19 1 4 3 -2 6 -13 5 -11 0 -14 -3 -6 -6z"/>
<path d="M10338 5123 c68 -2 176 -2 240 0 64 1 9 3 -123 3 -132 0 -185 -2
-117 -3z"/>
<path d="M9727 5049 c-22 -13 -22 -58 -1 -66 39 -15 73 46 37 65 -12 7 -25 7
-36 1z"/>
<path d="M6147 5044 c-13 -13 -7 -43 9 -52 15 -8 15 -11 0 -35 -11 -16 -13
-27 -7 -32 15 -9 29 2 47 36 22 44 15 83 -16 87 -14 2 -29 0 -33 -4z"/>
<path d="M5415 2495 c0 -924 1 -1301 2 -837 2 464 2 1220 0 1680 -1 460 -2 81
-2 -843z"/>
<path d="M3160 4111 c-14 -5 -56 -28 -95 -53 -38 -25 -214 -136 -390 -248
-580 -367 -820 -523 -832 -538 -17 -20 -16 -27 3 -46 13 -13 43 -16 176 -16
l161 0 66 43 c173 114 576 374 758 488 l201 126 189 -128 c103 -70 247 -168
318 -217 72 -48 232 -158 358 -242 l227 -155 0 -477 c0 -263 4 -478 9 -478 10
0 54 97 87 193 42 124 54 221 54 452 l0 212 40 -19 c94 -47 199 45 158 140
-10 24 -64 66 -228 179 -203 140 -301 207 -887 605 -278 188 -303 200 -373
179z"/>
<path d="M6345 3950 c-11 -4 -31 -20 -45 -35 -35 -37 -35 -112 -1 -149 52 -55
137 -55 181 1 25 32 27 108 4 141 -30 43 -92 62 -139 42z"/>
<path d="M8092 3948 c-7 -7 -12 -23 -12 -36 0 -14 -8 -31 -17 -38 -17 -13 -17
-15 0 -28 13 -10 17 -28 17 -75 0 -54 2 -61 20 -61 18 0 20 7 20 65 0 58 2 65
20 65 14 0 20 7 20 21 0 16 -4 19 -20 14 -16 -5 -20 -2 -20 20 0 18 7 28 25
35 14 5 25 14 25 20 0 14 -63 13 -78 -2z"/>
<path d="M8651 3951 c-17 -11 -7 -41 13 -41 22 0 30 20 15 36 -9 8 -19 10 -28
5z"/>
<path d="M9450 3835 c0 -118 1 -125 20 -125 19 0 20 7 20 125 0 118 -1 125
-20 125 -19 0 -20 -7 -20 -125z"/>
<path d="M10280 3835 c0 -118 1 -125 20 -125 19 0 20 7 20 125 0 118 -1 125
-20 125 -19 0 -20 -7 -20 -125z"/>
<path d="M10462 3948 c-7 -7 -12 -24 -12 -40 0 -15 -8 -32 -17 -37 -17 -10
-17 -12 0 -25 13 -10 17 -28 17 -75 0 -54 2 -61 20 -61 18 0 20 7 20 64 0 56
2 64 21 69 24 7 20 33 -5 31 -25 -3 -21 46 4 53 11 3 20 12 20 19 0 17 -51 19
-68 2z"/>
<path d="M10557 3954 c-16 -16 -7 -44 14 -44 15 0 20 5 17 22 -3 22 -19 33
-31 22z"/>
<path d="M10688 3935 c-16 -35 -2 -43 27 -15 30 28 32 40 5 40 -12 0 -25 -10
-32 -25z"/>
<path d="M6940 3830 l0 -120 63 0 c81 0 121 23 138 80 16 51 0 110 -38 139
-20 17 -40 21 -94 21 l-69 0 0 -120z m134 69 c21 -16 26 -29 26 -64 0 -58 -24
-87 -76 -89 l-39 -1 -2 80 c-1 44 1 83 3 87 10 15 62 8 88 -13z"/>
<path d="M10360 3930 c0 -13 7 -20 20 -20 13 0 20 7 20 20 0 13 -7 20 -20 20
-13 0 -20 -7 -20 -20z"/>
<path d="M6093 3873 c-39 -8 -73 -59 -73 -110 0 -63 40 -103 104 -103 62 0 96
30 103 91 6 55 -7 83 -50 109 -32 20 -42 21 -84 13z"/>
<path d="M7195 3855 c-48 -47 -26 -134 38 -150 30 -8 77 10 77 29 0 11 -8 13
-35 9 -34 -5 -65 8 -65 28 0 5 25 9 55 9 54 0 55 1 55 28 0 36 -37 72 -74 72
-15 0 -37 -10 -51 -25z m81 -22 c17 -17 16 -18 -20 -21 -45 -4 -54 2 -36 23
16 20 35 19 56 -2z"/>
<path d="M7368 3869 c-11 -6 -18 -22 -18 -40 0 -26 6 -33 40 -46 46 -18 53
-51 10 -45 -49 7 -53 7 -57 -4 -4 -12 38 -34 65 -34 10 0 28 7 40 16 36 25 26
64 -23 90 -46 23 -45 40 3 37 21 -2 32 2 32 11 0 25 -59 35 -92 15z"/>
<path d="M7574 3867 c-2 -7 -3 -62 -2 -123 3 -94 5 -109 21 -112 14 -3 17 4
17 42 0 43 11 59 25 36 20 -32 91 13 101 64 12 68 -49 128 -99 97 -14 -9 -22
-10 -30 -2 -15 15 -27 14 -33 -2z m106 -37 c34 -34 18 -90 -25 -90 -42 0 -59
58 -28 92 21 23 28 23 53 -2z"/>
<path d="M7767 3873 c-4 -3 -7 -42 -7 -85 0 -71 2 -78 20 -78 17 0 20 7 20 46
0 55 14 84 40 84 13 0 20 7 20 20 0 23 -19 26 -39 8 -11 -10 -14 -10 -18 0 -5
13 -25 16 -36 5z"/>
<path d="M7903 3856 c-22 -19 -28 -32 -28 -66 0 -34 6 -47 28 -66 38 -32 72
-30 108 5 79 80 -23 200 -108 127z m79 -23 c22 -19 24 -66 4 -83 -44 -36 -95
25 -62 74 19 30 32 32 58 9z"/>
<path d="M8212 3873 c-18 -7 -42 -57 -42 -88 0 -33 50 -85 82 -85 29 0 71 28
62 41 -3 5 -21 7 -40 3 -21 -4 -40 -2 -49 6 -27 22 -16 30 40 30 54 0 55 0 55
29 0 48 -60 84 -108 64z m68 -43 c10 -18 8 -20 -30 -20 -38 0 -40 2 -30 20 6
11 19 20 30 20 11 0 24 -9 30 -20z"/>
<path d="M8368 3869 c-11 -6 -18 -22 -18 -40 0 -26 6 -33 40 -46 27 -11 40
-22 38 -32 -3 -15 -16 -17 -62 -9 -34 6 -28 -20 8 -32 50 -16 91 4 91 45 0 24
-7 33 -34 47 -19 9 -38 21 -44 27 -16 16 22 26 44 13 25 -16 38 7 14 25 -22
15 -53 16 -77 2z"/>
<path d="M8510 3860 c-34 -34 -21 -61 43 -88 15 -6 27 -16 27 -21 0 -15 -30
-22 -51 -11 -20 11 -39 6 -39 -11 0 -16 51 -30 82 -23 63 13 58 83 -7 104 -40
13 -42 36 -4 33 13 -1 31 1 39 3 12 5 12 8 -4 20 -28 20 -63 17 -86 -6z"/>
<path d="M8649 3878 c-1 -2 -3 -40 -4 -85 -3 -76 -1 -83 16 -83 17 0 19 8 19
85 0 69 -3 85 -15 85 -8 0 -16 -1 -16 -2z"/>
<path d="M8748 3861 c-52 -41 -44 -121 15 -149 57 -27 117 14 117 79 0 47 -25
78 -70 85 -26 4 -42 1 -62 -15z m76 -27 c20 -19 21 -68 2 -84 -44 -36 -95 25
-62 74 19 30 38 33 60 10z"/>
<path d="M8910 3795 c0 -78 2 -85 20 -85 18 0 20 7 20 60 0 48 4 61 19 70 32
16 51 -12 51 -76 0 -47 2 -54 20 -54 18 0 20 7 20 54 0 30 -4 66 -10 80 -11
30 -49 42 -81 25 -17 -9 -24 -9 -27 0 -2 6 -10 11 -18 11 -11 0 -14 -18 -14
-85z"/>
<path d="M9097 3873 c-4 -3 -7 -42 -7 -85 0 -71 2 -78 20 -78 18 0 20 7 20 54
0 36 5 60 16 70 33 34 54 8 54 -66 0 -51 2 -58 20 -58 18 0 20 7 20 68 0 54
-4 72 -18 85 -21 19 -45 21 -72 7 -13 -7 -21 -7 -25 0 -7 12 -19 13 -28 3z"/>
<path d="M9296 3859 c-21 -16 -26 -29 -26 -63 0 -23 7 -51 15 -63 19 -27 63
-37 99 -23 37 14 28 36 -13 32 -31 -3 -61 11 -61 29 0 5 25 9 55 9 52 0 55 1
55 25 0 33 -42 75 -73 75 -13 0 -36 -9 -51 -21z m72 -21 c20 -20 14 -28 -23
-28 -19 0 -35 4 -35 8 0 12 22 32 35 32 6 0 16 -5 23 -12z"/>
<path d="M9540 3862 c-35 -28 -21 -65 32 -85 40 -16 41 -18 25 -34 -15 -15
-20 -16 -38 -4 -14 8 -25 9 -31 3 -29 -29 49 -53 88 -27 38 25 30 65 -18 88
-21 10 -38 23 -38 28 0 16 29 22 44 10 10 -8 16 -8 25 3 10 12 8 17 -8 25 -29
16 -56 13 -81 -7z"/>
<path d="M9760 3855 c-34 -36 -32 -101 4 -132 28 -24 60 -30 71 -13 14 23 25
7 25 -36 0 -38 3 -45 18 -42 15 3 17 18 20 117 3 116 -4 145 -30 123 -9 -7
-19 -7 -28 -2 -26 17 -56 11 -80 -15z m82 -22 c20 -18 24 -63 6 -81 -17 -17
-55 -15 -62 4 -12 31 -6 73 12 83 23 14 23 14 44 -6z"/>
<path d="M9934 3866 c-4 -9 -4 -44 -2 -78 5 -69 25 -94 68 -83 14 3 38 6 53 5
l28 0 -3 82 c-3 70 -6 83 -20 86 -16 3 -18 -5 -18 -55 0 -61 -11 -83 -42 -83
-19 0 -26 20 -30 89 -3 45 -23 66 -34 37z"/>
<path d="M10135 3867 c-26 -20 -11 -39 20 -25 19 8 28 8 40 -2 24 -20 18 -30
-18 -30 -62 0 -90 -64 -42 -96 16 -10 32 -13 47 -8 13 4 33 7 46 5 21 -2 22 1
22 57 0 45 -5 66 -21 86 -23 29 -63 35 -94 13z m75 -102 c0 -22 -38 -39 -55
-25 -21 17 -6 40 26 40 19 0 29 -5 29 -15z"/>
<path d="M10360 3794 c0 -77 2 -84 20 -84 18 0 20 7 20 79 0 70 -2 79 -20 84
-19 5 -20 0 -20 -79z"/>
<path d="M10556 3873 c-3 -4 -6 -42 -6 -85 0 -71 2 -78 20 -78 18 0 20 7 20
79 0 58 -4 80 -14 84 -8 3 -17 3 -20 0z"/>
<path d="M10645 3855 c-18 -18 -25 -35 -25 -65 0 -65 54 -103 114 -80 40 15
28 36 -19 32 -35 -4 -54 7 -55 31 0 4 25 7 55 7 54 0 55 0 55 29 0 35 -40 71
-77 71 -13 0 -35 -11 -48 -25z m73 -17 c20 -20 14 -28 -23 -28 -19 0 -35 4
-35 8 0 12 22 32 35 32 6 0 16 -5 23 -12z"/>
<path d="M10818 3868 c-39 -32 -22 -81 32 -91 18 -4 30 -13 30 -22 0 -22 -24
-29 -50 -15 -17 9 -25 9 -33 1 -25 -25 49 -49 90 -29 21 10 28 20 28 43 0 28
-21 47 -80 69 -6 2 -5 9 2 16 10 11 18 11 37 2 32 -14 48 5 21 25 -23 16 -56
17 -77 1z"/>
<path d="M6311 3664 c-63 -27 -66 -34 -27 -66 37 -30 76 -100 76 -136 0 -21 3
-22 116 -22 l116 0 -4 60 c-3 48 -10 67 -34 97 -60 73 -163 102 -243 67z"/>
<path d="M6025 3587 c-46 -25 -95 -110 -95 -163 l0 -32 63 -5 c34 -3 121 -4
192 -3 l130 1 3 30 c5 39 -13 95 -39 129 -52 66 -175 87 -254 43z"/>
<path d="M6997 3510 c10 -11 21 -20 25 -20 5 0 3 9 -4 20 -7 11 -18 20 -25 20
-9 0 -7 -6 4 -20z"/>
<path d="M8670 3515 c0 -10 7 -15 18 -13 21 4 19 22 -2 26 -10 2 -16 -3 -16
-13z"/>
<path d="M7570 3480 c0 -11 5 -20 10 -20 6 0 10 9 10 20 0 11 -4 20 -10 20 -5
0 -10 -9 -10 -20z"/>
<path d="M7197 3421 c9 -23 20 -38 26 -34 7 4 8 -1 3 -13 -5 -13 -4 -16 4 -8
14 14 -12 88 -33 92 -15 3 -15 0 0 -37z"/>
<path d="M7310 3450 c0 -5 5 -10 11 -10 5 0 7 5 4 10 -3 6 -8 10 -11 10 -2 0
-4 -4 -4 -10z"/>
<path d="M7424 3445 c-18 -13 -18 -14 4 -8 14 3 30 -1 41 -11 10 -9 21 -13 24
-9 4 3 4 -9 1 -28 -6 -33 -39 -79 -56 -79 -19 0 -48 42 -48 69 0 17 -4 33 -10
36 -6 4 -7 -1 -3 -11 4 -12 3 -15 -5 -10 -21 13 -14 -52 8 -74 31 -31 93 -27
119 6 12 15 21 36 20 48 -1 19 -2 19 -10 -4 -7 -21 -8 -20 -5 11 5 43 -1 55
-36 68 -19 7 -31 6 -44 -4z m62 -123 c-17 -16 -18 -16 -5 5 7 12 15 20 18 17
3 -2 -3 -12 -13 -22z m-85 1 c13 -16 12 -17 -3 -4 -10 7 -18 15 -18 17 0 8 8
3 21 -13z"/>
<path d="M7727 3442 c-10 -10 -17 -22 -17 -26 0 -9 49 27 50 37 0 13 -17 7
-33 -11z"/>
<path d="M8370 3378 c0 -68 2 -78 18 -77 10 0 12 3 5 6 -7 2 -13 12 -13 21 0
15 2 15 10 2 7 -11 10 -3 10 31 0 48 13 69 42 69 10 0 18 7 18 15 0 20 -19 19
-42 -2 -15 -14 -18 -14 -18 -1 0 8 -7 15 -15 15 -12 0 -15 -16 -15 -79z"/>
<path d="M8489 3438 c4 -11 11 -18 15 -16 4 2 14 -8 23 -22 9 -16 12 -18 8 -5
-4 11 -9 27 -12 37 -3 9 -13 18 -23 21 -15 4 -17 1 -11 -15z"/>
<path d="M8604 3448 c-3 -4 -2 -18 2 -30 6 -21 6 -21 20 3 7 13 13 27 14 30 0
9 -30 7 -36 -3z"/>
<path d="M8671 3403 c2 -40 4 -49 7 -28 6 28 6 27 12 -15 6 -40 7 -37 8 28 2
58 -1 72 -13 72 -12 0 -15 -12 -14 -57z"/>
<path d="M8780 3447 c-13 -7 -29 -24 -34 -38 -10 -31 1 -90 13 -70 6 10 10 9
14 -3 4 -9 1 -16 -6 -16 -8 0 -6 -4 3 -10 21 -14 88 -9 101 7 9 10 8 13 -5 13
-10 0 -14 -4 -11 -10 11 -18 -58 -3 -72 16 -15 21 -17 70 -3 79 6 4 8 10 5 15
-3 4 15 7 40 7 39 -2 43 0 28 11 -21 15 -41 15 -73 -1z m-23 -89 c-3 -8 -6 -5
-6 6 -1 11 2 17 5 13 3 -3 4 -12 1 -19z"/>
<path d="M6961 3441 c-9 -6 -10 -11 -2 -15 6 -4 11 -2 11 5 0 7 11 10 29 7 17
-2 28 -1 25 4 -7 11 -45 10 -63 -1z"/>
<path d="M7045 3432 c1 -9 5 -24 8 -32 3 -8 8 -24 10 -35 3 -11 5 -1 6 21 1
24 -5 46 -12 53 -11 8 -13 7 -12 -7z"/>
<path d="M7553 3443 c9 -2 17 -11 17 -19 0 -8 5 -14 10 -14 6 0 10 4 10 8 0
14 -23 32 -39 31 -12 -1 -12 -2 2 -6z"/>
<path d="M7608 3443 c6 -2 18 -2 25 0 6 3 1 5 -13 5 -14 0 -19 -2 -12 -5z"/>
<path d="M7680 3430 c0 -11 2 -20 4 -20 2 0 6 9 9 20 3 11 1 20 -4 20 -5 0 -9
-9 -9 -20z"/>
<path d="M7806 3428 c-39 -55 -6 -128 57 -128 35 0 66 15 54 26 -3 4 -12 2
-19 -4 -14 -11 -69 -11 -62 0 2 4 0 9 -6 13 -5 3 -10 13 -10 21 0 10 14 14 55
14 70 0 72 16 3 19 -61 3 -66 6 -52 29 11 17 76 31 73 15 -3 -18 2 -33 10 -33
10 0 9 19 -2 38 -5 6 -26 12 -47 12 -29 0 -43 -6 -54 -22z m14 -103 c0 -5 -5
-3 -10 5 -5 8 -10 20 -10 25 0 6 5 3 10 -5 5 -8 10 -19 10 -25z"/>
<path d="M8055 3439 c-4 -6 -4 -13 -1 -16 3 -4 6 0 6 7 0 9 12 11 46 7 29 -3
41 -1 33 4 -20 12 -76 11 -84 -2z"/>
<path d="M8207 3432 c-23 -26 -22 -94 1 -115 20 -18 87 -23 111 -8 21 14 -5
24 -29 11 -17 -9 -27 -8 -46 5 -43 28 -31 45 31 45 49 0 55 2 55 21 0 11 -5
29 -10 40 -14 26 -90 27 -113 1z m91 -7 c2 -6 9 -19 14 -29 9 -16 7 -18 -7
-13 -9 4 -31 7 -50 7 -24 0 -34 5 -38 20 -3 11 -1 18 3 15 5 -3 12 -1 15 5 8
13 59 9 63 -5z m-78 -90 c7 -9 8 -15 2 -15 -5 0 -12 7 -16 15 -3 8 -4 15 -2
15 2 0 9 -7 16 -15z"/>
<path d="M8980 3441 c14 -4 30 -17 36 -29 6 -12 14 -19 17 -15 4 3 7 1 7 -6 0
-8 -16 -11 -52 -9 -51 3 -53 4 -52 31 1 22 -1 25 -13 15 -18 -15 -14 -104 5
-100 6 1 11 -4 10 -10 -4 -17 51 -23 66 -7 8 9 8 10 -2 5 -20 -11 -48 2 -60
29 l-12 25 61 0 61 0 -7 27 c-10 40 -20 48 -57 50 -29 1 -30 0 -8 -6z"/>
<path d="M3118 3393 c12 -2 32 -2 45 0 12 2 2 4 -23 4 -25 0 -35 -2 -22 -4z"/>
<path d="M3068 3383 c7 -3 16 -2 19 1 4 3 -2 6 -13 5 -11 0 -14 -3 -6 -6z"/>
<path d="M6977 3383 c-32 -5 -42 -22 -33 -58 5 -20 12 -25 40 -25 20 0 39 7
47 18 12 15 12 15 -1 5 -8 -6 -27 -11 -41 -10 -23 2 -25 5 -19 27 5 19 15 26
41 30 27 4 30 7 16 13 -10 4 -19 6 -20 6 -1 -1 -15 -4 -30 -6z"/>
<path d="M7295 3382 c-18 -13 -36 -53 -29 -64 5 -8 2 -9 -9 -5 -10 3 -17 2
-17 -3 0 -6 9 -10 19 -10 14 0 23 13 34 45 9 25 15 45 14 45 -1 0 -6 -4 -12
-8z"/>
<path d="M7573 3345 c2 -37 4 -40 35 -43 18 -2 32 1 32 7 0 6 -8 11 -18 11
-11 0 -25 14 -35 33 l-17 32 3 -40z"/>
<path d="M8103 3368 c17 -6 27 -17 27 -29 0 -25 -25 -35 -55 -21 -15 7 -27 8
-30 2 -7 -12 34 -23 70 -18 63 7 57 71 -6 75 -34 1 -34 1 -6 -9z"/>
<path d="M2980 3353 c-14 -9 -37 -27 -52 -41 l-28 -26 68 -21 c37 -12 95 -36
130 -53 34 -18 62 -30 62 -27 0 8 -132 71 -189 90 l-55 18 25 21 c14 12 36 29
49 38 14 9 23 17 20 17 -3 1 -17 -6 -30 -16z"/>
<path d="M3281 3366 c2 -2 15 -9 29 -15 24 -11 24 -11 6 3 -16 13 -49 24 -35
12z"/>
<path d="M8539 3355 c-15 -57 31 -79 50 -23 6 17 9 34 6 36 -3 3 -5 0 -5 -7 0
-7 -4 -9 -10 -6 -5 3 -10 1 -10 -4 0 -18 -18 -12 -22 7 -3 15 -4 14 -9 -3z"/>
<path d="M7236 3343 c-6 -14 -5 -15 5 -6 7 7 10 15 7 18 -3 3 -9 -2 -12 -12z"/>
<path d="M7681 3333 c-1 -25 3 -33 17 -33 11 0 13 3 6 8 -7 4 -14 18 -17 32
-4 21 -4 20 -6 -7z"/>
<path d="M9087 3334 c-14 -15 -6 -34 14 -34 14 0 19 5 17 17 -3 18 -20 27 -31
17z"/>
<path d="M3415 3265 c66 -80 71 -86 49 -47 -10 18 -36 49 -58 70 -37 35 -37
34 9 -23z"/>
<path d="M8678 3303 c7 -3 16 -2 19 1 4 3 -2 6 -13 5 -11 0 -14 -3 -6 -6z"/>
<path d="M2665 3261 c-54 -25 -79 -55 -79 -95 0 -42 41 -98 94 -128 35 -20 40
-28 40 -59 0 -19 10 -63 21 -98 16 -48 19 -65 9 -71 -17 -10 -15 -90 4 -135 9
-20 16 -48 16 -62 0 -13 9 -43 21 -66 24 -48 120 -151 161 -173 l27 -14 -25
-38 c-14 -20 -41 -48 -61 -62 -20 -14 -38 -32 -40 -40 -3 -11 -1 -11 10 3 8 9
17 17 21 17 3 0 6 -8 7 -17 1 -13 4 -10 10 7 12 35 1 -105 -16 -191 l-13 -69
218 0 218 0 26 85 c15 47 51 131 80 187 l53 101 -21 35 c-12 19 -33 48 -48 64
-24 26 -28 38 -28 92 0 63 0 63 28 59 17 -3 39 4 61 19 67 46 92 139 50 192
-12 16 -18 33 -15 43 10 25 -150 178 -264 253 -116 75 -254 144 -335 165 -81
21 -180 19 -230 -4z m218 -298 c-7 -2 -19 -2 -25 0 -7 3 -2 5 12 5 14 0 19 -2
13 -5z m237 0 c-33 -6 -48 -19 -53 -46 -4 -19 -4 -19 -6 4 -1 33 16 49 54 48
27 -2 27 -2 5 -6z m67 1 c-3 -3 -12 -4 -19 -1 -8 3 -5 6 6 6 11 1 17 -2 13 -5z
m-251 -60 c-3 -8 -17 -13 -33 -13 l-28 2 28 4 c25 4 28 8 23 31 -5 23 -5 24 5
9 6 -10 8 -25 5 -33z m309 26 c10 -11 16 -20 13 -20 -3 0 -13 9 -23 20 -10 11
-16 20 -13 20 3 0 13 -9 23 -20z m-451 -15 c-4 -8 -8 -15 -10 -15 -2 0 -4 7
-4 15 0 8 4 15 10 15 5 0 7 -7 4 -15z m544 -120 l-2 -60 -3 58 c-2 32 -7 56
-11 53 -4 -2 -7 6 -8 17 0 12 -4 31 -8 42 -4 11 2 4 13 -15 15 -26 20 -51 19
-95z m-522 90 c-36 -19 -45 -19 -20 0 10 8 26 14 34 15 8 0 2 -7 -14 -15z m17
-39 c-22 -19 -29 -35 -34 -82 l-6 -59 -2 54 c-1 47 3 59 26 83 15 15 31 28 35
28 5 0 -3 -11 -19 -24z m89 4 c14 -10 28 -17 31 -14 3 3 3 -3 0 -15 -3 -12 -1
-21 6 -21 7 0 8 -6 2 -17 -5 -10 -21 -43 -36 -73 -15 -30 -24 -43 -21 -29 5
22 0 28 -30 42 -43 21 -54 22 -28 1 18 -15 18 -15 -3 -4 -13 6 -20 16 -17 24
3 8 1 17 -5 21 -28 17 14 76 52 74 17 -1 18 -2 5 -6 -41 -10 -28 -103 14 -103
10 0 18 -5 18 -12 0 -6 7 -3 15 8 31 41 10 115 -39 134 -15 6 -16 9 -5 9 9 1
28 -8 41 -19z m307 -11 c38 -37 39 -59 5 -96 l-25 -28 21 31 c25 36 17 69 -26
103 -15 11 -22 21 -16 21 6 0 24 -14 41 -31z m-82 -6 c-4 -3 -2 -12 4 -19 7
-8 7 -14 -1 -19 -5 -3 -10 1 -10 10 0 9 -4 13 -10 10 -27 -16 4 -85 38 -85 19
0 41 29 42 54 0 11 -8 28 -17 39 -17 19 -17 20 4 8 36 -19 40 -58 10 -89 -24
-24 -28 -25 -66 -13 -57 17 -68 41 -35 80 14 17 31 31 37 31 5 0 7 -3 4 -7z
m-262 -22 c3 -5 1 -12 -5 -16 -5 -3 -10 1 -10 9 0 18 6 21 15 7z m528 -26 c-3
-9 -8 -14 -10 -11 -3 3 -2 9 2 15 9 16 15 13 8 -4z m-430 -35 c-7 -28 -13 -25
-13 6 0 14 4 23 9 20 5 -3 7 -15 4 -26z m-183 -125 c1 -47 32 -104 90 -170
l54 -60 -51 49 c-65 61 -100 126 -107 196 -5 38 -3 49 3 35 5 -11 10 -33 11
-50z m640 31 c0 -2 -7 -7 -16 -10 -8 -3 -12 -2 -9 4 6 10 25 14 25 6z m-407
-33 c-7 -2 -19 -2 -25 0 -7 3 -2 5 12 5 14 0 19 -2 13 -5z m143 -15 l19 -23
-23 20 c-15 13 -26 16 -30 8 -4 -6 -23 -13 -42 -17 l-35 -6 32 13 c17 6 35 15
39 20 12 11 20 8 40 -15z m154 -52 c-12 -24 -38 -59 -58 -78 l-36 -33 28 34
c21 27 24 36 14 43 -10 6 -8 8 6 6 13 -2 24 9 40 38 11 23 23 40 25 38 2 -2
-6 -24 -19 -48z m-180 4 c-11 -16 -34 -37 -50 -46 -15 -10 -26 -23 -24 -29 5
-13 -10 -28 -38 -38 -28 -10 -21 2 7 13 38 14 31 32 -9 24 -20 -3 -42 -1 -53
6 -15 10 -14 10 10 5 37 -8 107 24 138 63 31 40 47 41 19 2z m-40 -5 c-46 -49
-132 -57 -158 -15 -11 19 -9 20 35 21 27 0 66 4 88 8 22 5 44 9 49 10 5 0 -1
-10 -14 -24z m-186 -10 c9 -14 15 -25 13 -25 -2 0 -13 11 -25 25 -12 14 -18
25 -13 25 5 0 16 -11 25 -25z m423 -67 c-2 -13 -4 -5 -4 17 -1 22 1 32 4 23 2
-10 2 -28 0 -40z m-122 -38 c-3 -5 -16 -15 -28 -21 -19 -9 -19 -8 3 10 28 23
34 26 25 11z m25 -53 c0 -2 -10 -12 -22 -23 l-23 -19 19 23 c18 21 26 27 26
19z m-207 -14 c-7 -2 -19 -2 -25 0 -7 3 -2 5 12 5 14 0 19 -2 13 -5z m287 -26
c0 -2 -10 -12 -22 -23 l-23 -19 19 23 c18 21 26 27 26 19z m-260 -161 l24 -39
35 40 c20 21 50 48 66 58 17 11 3 -8 -35 -46 l-65 -64 -32 50 c-25 39 -32 60
-31 95 l1 45 7 -50 c3 -27 17 -68 30 -89z"/>
<path d="M3391 3254 c0 -11 3 -14 6 -6 3 7 2 16 -1 19 -3 4 -6 -2 -5 -13z"/>
<path d="M3481 3180 c0 -3 6 -25 13 -50 8 -25 15 -36 15 -25 0 17 -26 88 -28
75z"/>
<path d="M2250 2670 c0 -313 3 -480 10 -480 7 0 10 167 10 480 0 313 -3 480
-10 480 -7 0 -10 -167 -10 -480z"/>
<path d="M2002 3120 c0 -14 2 -19 5 -12 2 6 2 18 0 25 -3 6 -5 1 -5 -13z"/>
<path d="M3305 3075 c22 -19 44 -34 48 -35 5 0 -10 16 -33 35 -23 19 -45 35
-48 35 -4 0 11 -16 33 -35z"/>
<path d="M1960 3060 c-10 -7 -4 -8 20 -4 24 3 47 -1 73 -14 46 -24 49 -19 5 8
-36 21 -74 25 -98 10z"/>
<path d="M3513 3005 c0 -27 2 -38 4 -22 2 15 2 37 0 50 -2 12 -4 0 -4 -28z"/>
<path d="M1913 3015 c-3 -9 -3 -18 -1 -21 3 -3 8 4 11 16 6 23 -1 27 -10 5z"/>
<path d="M3431 2964 c48 -54 66 -68 72 -58 5 8 6 22 4 32 -3 11 -5 9 -6 -8 -1
-22 -7 -19 -68 40 l-67 65 65 -71z"/>
<path d="M2092 2985 c0 -16 2 -22 5 -12 2 9 2 23 0 30 -3 6 -5 -1 -5 -18z"/>
<path d="M1982 2975 c15 -16 20 -17 30 -6 11 11 10 13 0 7 -7 -4 -21 -2 -30 5
-15 12 -15 11 0 -6z"/>
<path d="M1848 2973 c7 -3 16 -2 19 1 4 3 -2 6 -13 5 -11 0 -14 -3 -6 -6z"/>
<path d="M2138 2973 c7 -3 16 -2 19 1 4 3 -2 6 -13 5 -11 0 -14 -3 -6 -6z"/>
<path d="M1911 2950 c0 -8 9 -26 20 -40 16 -20 18 -21 10 -4 -6 12 -7 25 -3
29 4 5 2 5 -5 1 -6 -3 -13 1 -16 11 -3 13 -5 13 -6 3z"/>
<path d="M1948 2948 c7 -9 15 -29 18 -44 7 -40 14 -43 14 -7 0 19 -8 37 -22
49 -16 13 -19 14 -10 2z"/>
<path d="M1996 2925 c4 -8 8 -15 10 -15 2 0 4 7 4 15 0 8 -4 15 -10 15 -5 0
-7 -7 -4 -15z"/>
<path d="M2026 2918 c-17 -64 9 -96 31 -38 8 22 8 29 0 27 -7 -1 -11 6 -11 16
2 25 -13 21 -20 -5z"/>
<path d="M3790 2845 l0 -86 83 3 82 3 0 80 0 80 -82 3 -83 3 0 -86z"/>
<path d="M4014 2917 c-3 -8 -4 -45 -2 -83 l3 -69 80 0 80 0 0 80 0 80 -78 3
c-59 2 -79 0 -83 -11z"/>
<path d="M6192 2854 c-71 -19 -106 -38 -159 -87 -84 -78 -133 -220 -113 -329
23 -118 92 -215 192 -268 114 -61 267 -52 375 21 59 41 109 104 135 168 30 77
29 194 -1 273 -43 112 -157 205 -280 228 -68 13 -84 12 -149 -6z m163 -65
c181 -49 275 -261 190 -428 -92 -183 -326 -222 -472 -79 -115 113 -117 305 -5
421 77 80 187 113 287 86z"/>
<path d="M6257 2693 c-4 -3 -7 -55 -7 -113 l0 -108 66 -51 c37 -28 70 -51 74
-51 4 0 14 7 21 16 12 14 6 23 -49 73 l-62 56 0 93 c0 83 -2 92 -18 92 -10 0
-22 -3 -25 -7z"/>
<path d="M1955 2820 c3 -5 26 -10 51 -10 24 0 44 5 44 10 0 6 -23 10 -51 10
-31 0 -48 -4 -44 -10z"/>
<path d="M1968 2780 c12 -11 27 -20 34 -20 8 0 21 9 31 20 16 20 16 20 -35 20
l-52 0 22 -20z"/>
<path d="M7510 2765 c-11 -13 -11 -19 3 -33 20 -19 41 -5 35 24 -4 24 -22 28
-38 9z"/>
<path d="M7700 2730 c0 -49 0 -49 -26 -40 -29 11 -77 -8 -88 -35 -12 -33 -6
-83 15 -109 22 -28 65 -35 88 -13 11 10 14 10 18 0 3 -7 11 -13 19 -13 11 0
14 25 14 130 0 123 -1 130 -20 130 -17 0 -20 -7 -20 -50z m-12 -82 c20 -20 15
-76 -7 -88 -25 -13 -27 -13 -45 6 -31 30 -15 94 24 94 9 0 21 -5 28 -12z"/>
<path d="M8240 2764 c-10 -11 -10 -17 0 -28 15 -19 40 -10 40 14 0 24 -25 33
-40 14z"/>
<path d="M8780 2650 c0 -123 1 -130 20 -130 19 0 20 7 20 130 0 123 -1 130
-20 130 -19 0 -20 -7 -20 -130z"/>
<path d="M9432 2768 c-5 -7 -13 -28 -17 -45 -3 -18 -11 -33 -16 -33 -12 0 -12
-27 0 -32 6 -1 12 -32 14 -68 4 -49 9 -66 21 -68 13 -3 16 7 16 63 0 58 3 68
20 72 26 7 26 29 0 36 -16 4 -18 9 -11 29 4 12 14 23 22 23 8 0 15 8 17 18 3
13 -3 17 -26 17 -16 0 -34 -6 -40 -12z"/>
<path d="M9757 2773 c-4 -3 -7 -60 -7 -125 0 -102 2 -120 17 -125 9 -4 18 -2
21 5 2 8 10 8 27 0 56 -25 113 30 101 97 -11 55 -59 82 -108 61 -16 -7 -18 -2
-18 43 0 36 -4 51 -13 51 -8 0 -17 -3 -20 -7z m115 -139 c15 -32 -7 -79 -37
-79 -11 0 -26 12 -34 27 -21 36 -2 78 34 78 18 0 29 -8 37 -26z"/>
<path d="M9950 2650 c0 -120 2 -131 18 -128 15 3 17 17 16 128 -1 108 -3 125
-17 128 -15 3 -17 -11 -17 -128z"/>
<path d="M6942 2648 c3 -108 5 -123 21 -126 14 -3 17 4 17 47 0 44 3 51 19 51
12 0 30 -18 50 -50 20 -33 38 -50 51 -50 26 0 25 4 -6 57 l-25 43 20 27 c28
34 27 74 -2 101 -19 18 -35 22 -85 22 l-63 0 3 -122z m95 86 c27 -7 39 -40 23
-59 -7 -8 -28 -15 -46 -15 -32 0 -34 2 -34 33 0 47 9 54 57 41z"/>
<path d="M9513 2754 c-3 -8 -1 -20 6 -27 14 -14 47 15 37 32 -10 16 -36 13
-43 -5z"/>
<path d="M9250 2715 c0 -16 -6 -25 -15 -25 -8 0 -15 -5 -15 -10 0 -6 7 -13 15
-16 11 -5 15 -22 15 -63 0 -64 11 -81 52 -81 21 0 28 5 28 19 0 12 -7 18 -17
17 -15 -1 -19 9 -21 52 -3 47 -1 52 17 52 12 0 21 7 21 15 0 8 -9 15 -20 15
-15 0 -20 7 -20 25 0 18 -5 25 -20 25 -15 0 -20 -7 -20 -25z"/>
<path d="M3790 2625 l0 -86 83 3 82 3 0 80 0 80 -82 3 -83 3 0 -86z"/>
<path d="M4017 2704 c-4 -4 -7 -43 -7 -86 l0 -79 83 3 82 3 0 80 0 80 -75 3
c-42 1 -79 0 -83 -4z"/>
<path d="M1850 2690 c0 -6 53 -10 140 -10 87 0 140 4 140 10 0 6 -53 10 -140
10 -87 0 -140 -4 -140 -10z"/>
<path d="M7177 2688 c-39 -14 -28 -33 19 -33 29 0 39 -4 42 -17 3 -14 -4 -18
-31 -18 -57 0 -86 -50 -49 -83 22 -20 53 -22 71 -4 11 10 14 10 18 0 3 -7 11
-13 19 -13 18 0 20 129 2 153 -17 21 -57 28 -91 15z m61 -110 c-3 -25 -34 -36
-51 -19 -14 14 9 41 35 41 14 0 19 -6 16 -22z"/>
<path d="M7397 2693 c-4 -3 -23 -6 -42 -5 l-35 1 0 -119 c0 -113 1 -120 20
-120 17 0 20 7 20 47 0 37 3 44 12 35 21 -21 65 -14 87 14 26 33 28 94 4 122
-20 22 -56 36 -66 25z m31 -45 c17 -17 15 -64 -4 -82 -18 -19 -20 -19 -45 -6
-37 20 -20 100 21 100 9 0 21 -5 28 -12z"/>
<path d="M8120 2687 c-18 -9 -25 -21 -25 -42 0 -25 7 -33 38 -48 42 -21 50
-47 13 -47 -14 0 -28 5 -31 10 -5 8 -12 7 -22 -1 -13 -11 -13 -14 3 -26 43
-32 114 -4 114 44 0 25 -16 39 -53 48 -39 10 -36 37 5 33 40 -4 49 18 13 32
-32 12 -25 12 -55 -3z"/>
<path d="M8471 2684 c-17 -12 -26 -13 -34 -5 -15 15 -60 14 -75 -1 -9 -9 -12
-9 -12 0 0 7 -7 12 -15 12 -12 0 -15 -15 -17 -65 -1 -36 -2 -73 -2 -82 -1 -10
7 -19 17 -21 14 -3 17 4 17 50 0 65 19 99 47 82 14 -8 19 -26 21 -73 2 -45 7
-61 17 -61 12 0 15 14 15 58 0 60 11 82 41 82 22 0 29 -20 29 -86 0 -41 4 -54
15 -54 16 0 19 20 16 100 -1 32 -8 50 -23 63 -25 21 -28 21 -57 1z"/>
<path d="M8660 2690 c-8 -5 -27 -6 -42 -3 l-28 6 0 -122 c0 -114 1 -121 20
-121 17 0 20 7 20 47 0 37 3 44 12 35 21 -21 65 -14 87 14 26 33 28 94 4 122
-22 25 -53 35 -73 22z m38 -42 c17 -17 15 -64 -4 -82 -18 -19 -20 -19 -45 -6
-37 20 -20 100 21 100 9 0 21 -5 28 -12z"/>
<path d="M8894 2685 c-30 -12 -54 -50 -54 -85 0 -34 48 -80 84 -80 43 0 76 24
59 41 -10 10 -16 10 -25 1 -17 -17 -42 -15 -61 6 -23 25 -13 32 50 32 45 0 53
3 53 19 0 24 -34 67 -58 73 -11 3 -32 0 -48 -7z m50 -31 c25 -24 19 -34 -18
-34 -44 0 -53 14 -24 34 27 19 23 19 42 0z"/>
<path d="M9617 2688 c-39 -14 -28 -33 19 -33 29 0 39 -4 42 -17 3 -14 -4 -18
-32 -18 -38 0 -66 -21 -66 -50 0 -41 59 -66 89 -37 11 10 14 10 18 0 3 -7 11
-13 19 -13 21 0 20 133 -2 154 -8 9 -19 16 -24 16 -5 0 -14 2 -22 4 -7 3 -26
0 -41 -6z m63 -107 c0 -20 -32 -37 -50 -26 -14 9 -13 32 3 38 28 12 47 7 47
-12z"/>
<path d="M7510 2605 c0 -78 2 -85 20 -85 18 0 20 7 20 85 0 78 -2 85 -20 85
-18 0 -20 -7 -20 -85z"/>
<path d="M7791 2664 c-12 -15 -21 -41 -21 -61 0 -64 75 -106 125 -70 24 18 11
41 -15 27 -26 -14 -36 -13 -54 6 -27 26 -18 34 39 34 52 0 55 1 55 25 0 62
-90 89 -129 39z m88 -17 c15 -19 4 -27 -36 -27 -31 0 -44 16 -26 33 11 12 50
8 62 -6z"/>
<path d="M8240 2605 c0 -78 2 -85 20 -85 18 0 20 7 20 85 0 78 -2 85 -20 85
-18 0 -20 -7 -20 -85z"/>
<path d="M9090 2670 c-29 -29 -28 -99 3 -128 27 -25 74 -29 103 -8 28 21 5 43
-25 24 -24 -15 -54 -2 -59 26 -3 13 6 16 52 16 44 0 56 3 56 16 0 19 -19 56
-34 66 -22 15 -76 8 -96 -12z m88 -32 c3 -15 -4 -18 -32 -18 -34 0 -47 15 -29
34 13 13 58 1 61 -16z"/>
<path d="M9512 2608 c3 -70 6 -83 21 -86 15 -3 17 6 17 82 0 80 -1 86 -20 86
-20 0 -21 -5 -18 -82z"/>
<path d="M10031 2664 c-12 -15 -21 -38 -21 -51 0 -31 25 -79 45 -87 47 -18
123 10 97 36 -9 9 -15 9 -24 0 -17 -17 -44 -15 -62 4 -25 24 -10 34 50 34 54
0 54 0 48 28 -11 43 -33 62 -75 62 -29 0 -42 -6 -58 -26z m88 -17 c14 -18 4
-27 -29 -27 -15 0 -30 3 -33 7 -10 10 13 33 33 33 10 0 23 -6 29 -13z"/>
<path d="M1947 2633 c-29 -3 -37 -8 -35 -21 2 -12 11 -16 31 -14 22 3 27 -1
27 -17 0 -12 -4 -21 -10 -21 -5 0 -10 -11 -10 -25 0 -21 -5 -25 -30 -25 -16 0
-30 5 -30 10 0 6 -8 10 -19 10 -19 0 -31 -34 -31 -86 0 -19 5 -24 25 -24 14 0
25 5 25 11 0 7 14 9 43 5 47 -7 68 -8 112 -4 25 3 30 0 28 -18 -2 -19 4 -23
37 -26 44 -4 44 -3 30 57 -10 45 -32 65 -72 65 -21 0 -29 6 -34 25 -3 14 -10
25 -15 25 -5 0 -9 9 -9 21 0 18 4 20 25 15 18 -5 27 -2 31 9 4 9 5 17 3 19 -8
7 -86 12 -122 9z m93 -146 c0 -5 -4 -5 -10 -2 -5 3 -10 14 -10 23 0 15 2 15
10 2 5 -8 10 -19 10 -23z"/>
<path d="M4526 2483 c-3 -87 -8 -176 -11 -198 -4 -38 -4 -39 6 -10 11 31 26
365 17 365 -3 0 -8 -71 -12 -157z"/>
<path d="M7954 2555 c-4 -8 -1 -22 5 -29 8 -10 9 -16 1 -21 -12 -7 -14 -35 -2
-35 5 0 17 15 27 34 16 29 17 37 6 50 -17 20 -30 20 -37 1z"/>
<path d="M4488 2340 c-9 -28 -12 -48 -7 -45 9 6 33 85 27 91 -3 2 -11 -19 -20
-46z"/>
<path d="M2097 2349 c-19 -26 -22 -43 -7 -34 6 3 10 -4 10 -17 0 -19 -2 -20
-11 -8 -9 13 -10 13 -6 0 2 -9 15 -15 33 -15 24 0 30 5 32 26 2 14 -5 36 -16
49 l-19 23 -16 -24z"/>
<path d="M6974 2343 c10 -11 37 -12 30 -2 -3 5 -12 9 -21 9 -9 0 -13 -3 -9 -7z"/>
<path d="M3482 2318 c-36 -45 -134 -300 -120 -313 2 -3 12 20 22 51 10 30 27
65 38 76 16 16 17 22 7 28 -10 7 -4 26 25 85 36 72 40 76 64 71 20 -5 23 -4
12 4 -20 13 -36 13 -48 -2z"/>
<path d="M2430 2300 c-8 -15 -8 -36 1 -80 15 -77 7 -110 -27 -110 -35 0 -74
-42 -74 -79 0 -16 -5 -33 -10 -36 -7 -4 -8 -39 -4 -98 9 -123 9 -140 -6 -227
-16 -99 -8 -178 25 -245 30 -62 88 -110 144 -120 50 -8 121 19 121 47 0 33 19
57 61 78 l39 21 -6 77 c-3 42 -1 151 6 242 10 139 15 168 31 186 10 11 19 31
19 45 0 13 15 68 33 122 18 53 31 97 28 97 -12 0 -77 -43 -104 -69 -53 -49
-69 -87 -73 -169 -4 -94 -7 -114 -29 -177 -18 -54 -40 -85 -62 -85 -19 0 -16
13 7 28 13 8 20 23 20 41 0 17 5 33 10 36 6 3 10 21 10 40 0 19 4 36 9 40 6 3
9 41 8 84 -3 78 -15 111 -42 111 -9 0 -14 25 -17 80 -4 60 -10 88 -25 108 -26
35 -77 42 -93 12z m99 -100 c-1 -53 -6 -44 -12 24 -3 30 -1 43 4 35 5 -8 8
-34 8 -59z m-60 -24 c1 -42 -5 -29 -12 24 -4 30 -3 38 3 25 5 -11 9 -33 9 -49z
m8 -82 c-3 -3 -12 -4 -19 -1 -8 3 -5 6 6 6 11 1 17 -2 13 -5z m97 -13 c3 -4 0
-21 -6 -38 -11 -29 -13 -29 -67 -25 -80 5 -86 10 -13 11 45 1 61 4 56 13 -4 7
-3 8 4 4 8 -5 12 0 12 13 0 12 -8 21 -22 24 -20 4 -20 4 4 6 15 0 29 -3 32 -8z
m-214 -43 c-3 -24 -12 -52 -19 -63 l-13 -20 8 20 c4 11 9 34 11 50 5 35 11 55
16 55 2 0 1 -19 -3 -42z m111 -46 c-18 -2 -37 0 -42 5 -5 5 11 6 34 3 41 -4
41 -5 8 -8z m117 -43 c-3 -8 -7 -3 -11 10 -4 17 -3 21 5 13 5 -5 8 -16 6 -23z
m-125 -26 c-40 -5 -44 -22 -5 -24 25 -2 25 -2 3 -6 -13 -3 -28 0 -33 5 -17 17
1 32 35 30 l32 -1 -32 -4z m-126 -65 c-3 -8 -6 -5 -6 6 -1 11 2 17 5 13 3 -3
4 -12 1 -19z m228 -18 c-3 -5 -34 -9 -68 -8 l-62 1 65 7 c36 4 66 7 68 8 2 1
0 -2 -3 -8z m-155 -99 c21 -8 22 -10 5 -10 -23 -1 -34 6 -55 34 -14 19 -14 19
5 3 11 -9 32 -21 45 -27z m131 16 c-10 -9 -11 -8 -5 6 3 10 9 15 12 12 3 -3 0
-11 -7 -18z m-68 -4 c-7 -2 -19 -2 -25 0 -7 3 -2 5 12 5 14 0 19 -2 13 -5z"/>
<path d="M7219 2311 c11 -7 9 -13 -8 -30 -26 -26 -26 -27 0 -34 19 -5 21 -12
17 -69 l-3 -63 34 -3 c24 -3 32 0 29 10 -3 7 -9 13 -14 13 -24 1 -34 20 -34
65 0 27 -4 52 -10 55 -5 3 -10 11 -10 17 0 6 8 4 18 -5 21 -19 42 -22 42 -7 0
6 -9 10 -20 10 -15 0 -20 7 -20 25 0 17 -5 25 -17 25 -14 0 -15 -2 -4 -9z"/>
<path d="M9028 2313 c6 -2 12 -12 12 -20 0 -9 -3 -14 -6 -10 -4 3 -14 -1 -23
-10 -11 -12 -13 -17 -3 -21 6 -2 12 -19 12 -38 0 -20 4 -33 8 -30 4 2 12 -11
18 -30 10 -31 3 -49 -9 -24 -3 6 -4 5 -3 -2 3 -16 66 -24 66 -9 0 6 -9 11 -20
11 -23 0 -33 29 -28 86 2 31 8 40 28 46 23 7 22 7 -5 5 -29 -3 -31 -1 -27 25
3 22 0 28 -14 27 -11 0 -14 -3 -6 -6z"/>
<path d="M3559 2301 c7 -5 10 -14 6 -21 -5 -8 0 -7 14 2 19 12 19 13 3 20 -25
10 -39 9 -23 -1z"/>
<path d="M7724 2281 c2 -22 33 -38 48 -23 9 9 6 12 -14 12 -15 0 -28 6 -31 13
-3 8 -4 7 -3 -2z"/>
<path d="M3606 2257 c-32 -42 -63 -114 -89 -212 -18 -63 -22 -100 -19 -177 l3
-97 43 5 c110 15 181 -84 125 -175 -11 -18 -18 -35 -16 -37 2 -2 53 21 113 50
129 64 234 138 234 165 0 10 -11 61 -25 113 -62 242 -110 305 -284 373 l-61
24 -24 -32z"/>
<path d="M7691 2271 c-12 -8 -12 -12 2 -26 12 -11 17 -33 17 -70 0 -30 4 -56
9 -59 5 -4 7 4 4 16 -3 16 -2 19 4 10 6 -8 8 8 5 45 -2 33 -10 63 -18 69 -7 6
-11 14 -7 17 9 10 0 8 -16 -2z"/>
<path d="M8047 2259 c-24 -18 -27 -27 -25 -72 l1 -52 4 45 c5 50 17 70 44 70
26 0 39 -30 39 -89 0 -42 3 -51 18 -50 10 0 12 3 5 6 -7 2 -13 19 -12 36 0 28
2 29 10 12 7 -14 8 -5 6 33 -3 29 -8 57 -13 61 -22 21 -52 21 -77 0z m68 -10
c11 -17 -1 -21 -15 -4 -8 9 -8 15 -2 15 6 0 14 -5 17 -11z"/>
<path d="M8253 2264 c0 -10 7 -12 20 -8 12 4 17 2 13 -4 -3 -6 -1 -14 5 -18 8
-5 9 -3 4 6 -5 8 -4 11 1 7 5 -3 8 -24 6 -47 -3 -30 -11 -45 -28 -57 -22 -14
-26 -14 -51 3 -24 15 -26 15 -14 1 8 -10 9 -17 3 -17 -6 0 -16 8 -21 18 -6 9
-11 12 -11 5 0 -19 42 -43 75 -43 16 0 25 4 19 8 -8 5 -4 13 12 25 25 19 33
11 12 -13 -7 -8 -3 -6 10 4 24 21 30 72 12 106 -13 24 -67 44 -67 24z m64 -96
c-3 -8 -6 -5 -6 6 -1 11 2 17 5 13 3 -3 4 -12 1 -19z"/>
<path d="M6955 2259 c-4 -6 -5 -12 -2 -15 7 -7 37 7 37 17 0 13 -27 11 -35 -2z"/>
<path d="M7015 2260 c-3 -5 0 -7 8 -4 8 3 18 0 23 -7 4 -7 3 -10 -3 -6 -6 4
-8 -3 -5 -18 4 -23 1 -25 -35 -25 -44 0 -63 -14 -63 -45 0 -63 86 -60 114 5 3
8 4 0 1 -17 -2 -18 0 -33 5 -33 13 0 13 116 0 141 -11 20 -35 25 -45 9z m25
-89 c0 -40 -61 -56 -68 -17 -5 22 13 36 46 36 15 0 22 -6 22 -19z"/>
<path d="M7330 2243 c-42 -54 -5 -133 62 -133 66 0 105 93 58 140 -31 31 -93
27 -120 -7z m19 0 c-12 -14 -12 -16 0 -9 32 20 80 24 93 8 8 -10 9 -13 1 -9
-8 5 -10 -4 -6 -32 4 -32 2 -41 -18 -55 -13 -9 -18 -16 -12 -16 6 0 21 12 32
26 23 29 29 19 8 -10 -18 -24 -82 -30 -99 -9 -7 8 -12 32 -11 52 2 36 2 36 -7
6 -7 -28 -8 -29 -9 -5 -1 24 23 70 36 70 3 0 -1 -8 -8 -17z"/>
<path d="M7352 2144 c10 -10 20 -16 22 -13 3 3 -5 11 -17 18 -21 13 -21 12 -5
-5z"/>
<path d="M7510 2209 c0 -74 11 -96 47 -97 28 0 63 23 63 41 0 6 -9 2 -20 -8
-24 -22 -45 -15 -64 23 -11 20 -12 39 -6 65 6 29 5 37 -6 37 -10 0 -14 -15
-14 -61z m33 -89 c-6 -7 -23 23 -23 40 0 8 6 4 13 -10 8 -14 12 -27 10 -30z"/>
<path d="M7620 2218 c0 -28 2 -49 4 -47 8 9 12 99 4 99 -4 0 -8 -23 -8 -52z"/>
<path d="M7900 2190 c0 -64 3 -80 15 -80 12 0 15 13 15 59 0 40 5 63 15 71 8
7 15 17 15 23 0 21 -39 -26 -43 -52 -3 -20 -4 -18 -6 11 0 21 4 38 12 41 7 3
5 6 -5 6 -16 1 -18 -9 -18 -79z"/>
<path d="M8197 2252 c-9 -10 -19 -34 -22 -53 -4 -29 -3 -30 4 -9 5 14 10 18
10 10 1 -8 8 -1 15 15 7 17 11 34 8 39 -3 5 2 7 11 3 10 -3 17 -2 17 3 0 16
-26 11 -43 -8z m6 -17 c-3 -9 -8 -14 -10 -11 -3 3 -2 9 2 15 9 16 15 13 8 -4z"/>
<path d="M8370 2190 c0 -64 3 -80 15 -80 12 0 15 13 15 59 0 40 5 63 15 71 17
14 21 35 4 24 -6 -3 -17 -20 -25 -38 l-13 -31 -1 32 c0 17 6 34 13 36 7 3 5 6
-5 6 -16 1 -18 -9 -18 -79z m17 -62 c-3 -8 -6 -5 -6 6 -1 11 2 17 5 13 3 -3 4
-12 1 -19z"/>
<path d="M8484 2252 c11 -12 20 -21 20 -20 1 2 8 12 16 23 14 19 14 19 -2 6
-15 -11 -21 -11 -35 0 -15 11 -14 9 1 -9z"/>
<path d="M8580 2255 c14 -17 13 -18 -3 -12 -15 5 -16 4 -7 -13 5 -10 10 -41
10 -69 0 -39 4 -51 15 -51 12 0 15 12 14 53 -1 66 -10 99 -29 105 -13 5 -13 3
0 -13z"/>
<path d="M8674 2262 c-37 -25 -41 -107 -6 -133 14 -11 15 -11 5 1 -22 24 -14
34 10 14 22 -19 22 -19 5 2 -30 34 -22 44 35 45 l52 1 -52 10 c-48 9 -52 11
-43 29 20 36 99 38 85 1 -5 -13 -4 -14 6 -5 29 29 -59 61 -97 35z"/>
<path d="M8830 2190 c0 -64 3 -80 15 -80 12 0 15 13 15 57 0 44 5 62 22 80 12
13 17 23 11 23 -16 0 -35 -26 -44 -63 -7 -28 -8 -26 -5 16 2 26 0 47 -5 47 -5
0 -9 -36 -9 -80z"/>
<path d="M8941 2253 c12 -14 12 -16 0 -8 -11 6 -13 4 -8 -9 4 -10 7 -34 8 -54
1 -33 2 -34 9 -12 l7 25 5 -30 c4 -26 5 -24 7 12 1 48 -13 93 -30 93 -8 0 -7
-6 2 -17z"/>
<path d="M7998 2179 c3 -51 7 -69 18 -69 8 0 14 5 14 11 0 5 -4 7 -10 4 -6 -4
-10 16 -10 54 0 33 -3 62 -7 64 -5 3 -7 -26 -5 -64z"/>
<path d="M4502 2220 c0 -14 2 -19 5 -12 2 6 2 18 0 25 -3 6 -5 1 -5 -13z"/>
<path d="M1840 2220 c0 -6 56 -10 149 -10 89 0 152 4 156 10 4 7 -48 10 -149
10 -97 0 -156 -4 -156 -10z"/>
<path d="M8472 2173 c-2 -50 1 -63 13 -63 11 0 15 10 14 38 -2 35 -2 36 -8 7
-4 -25 -6 -21 -11 25 l-7 55 -1 -62z"/>
<path d="M8781 2204 c0 -11 3 -14 6 -6 3 7 2 16 -1 19 -3 4 -6 -2 -5 -13z"/>
<path d="M2882 2180 c0 -14 2 -19 5 -12 2 6 2 18 0 25 -3 6 -5 1 -5 -13z"/>
<path d="M4405 2150 c-30 -59 -32 -70 -5 -39 12 16 19 19 20 10 0 -8 3 -11 8
-7 6 7 11 86 5 86 -2 0 -14 -22 -28 -50z"/>
<path d="M3496 2150 c-22 -56 -19 -65 5 -11 11 24 18 46 15 48 -2 2 -11 -14
-20 -37z"/>
<path d="M2816 2138 c-18 -48 -39 -139 -33 -144 3 -3 24 65 53 169 10 34 -5
16 -20 -25z"/>
<path d="M4472 2118 c-6 -23 -9 -44 -7 -46 2 -2 9 15 15 38 6 23 9 44 7 46 -2
3 -9 -14 -15 -38z"/>
<path d="M7626 2142 c-4 -13 -5 -26 -2 -29 10 -11 18 4 14 29 l-4 23 -8 -23z"/>
<path d="M1926 2142 c-3 -5 10 -24 29 -42 42 -41 43 -52 9 -79 -35 -28 -39
-27 -79 13 -38 38 -50 33 -41 -19 9 -49 56 -85 110 -85 39 0 47 -5 104 -65 53
-56 65 -64 81 -55 11 5 23 20 27 32 5 18 -5 32 -54 80 -57 55 -60 60 -55 96 3
25 -1 50 -10 69 -22 42 -105 80 -121 55z"/>
<path d="M2866 2124 c-4 -14 -5 -28 -3 -31 3 -2 8 8 11 23 4 14 5 28 3 31 -3
2 -8 -8 -11 -23z"/>
<path d="M8735 2135 l-30 -13 38 1 c20 0 37 4 37 8 0 15 -15 16 -45 4z"/>
<path d="M9137 2143 c-13 -12 -7 -33 8 -33 8 0 15 9 15 20 0 20 -11 26 -23 13z"/>
<path d="M7757 2119 c7 -7 15 -10 18 -7 3 3 -2 9 -12 12 -14 6 -15 5 -6 -5z"/>
<path d="M2845 2031 c-7 -49 -8 -50 -43 -54 l-37 -4 41 -1 41 -2 7 51 c4 28 5
53 3 56 -3 2 -8 -18 -12 -46z"/>
<path d="M3461 2044 c0 -11 3 -14 6 -6 3 7 2 16 -1 19 -3 4 -6 -2 -5 -13z"/>
<path d="M4333 2018 c-20 -26 -26 -41 -15 -34 12 7 36 46 29 46 -3 0 -9 -6
-14 -12z"/>
<path d="M4426 1995 c-9 -26 -7 -32 5 -12 6 10 9 21 6 23 -2 3 -7 -2 -11 -11z"/>
<path d="M3358 1973 c6 -2 18 -2 25 0 6 3 1 5 -13 5 -14 0 -19 -2 -12 -5z"/>
<path d="M4289 1953 c-13 -16 -12 -17 4 -4 16 13 21 21 13 21 -2 0 -10 -8 -17
-17z"/>
<path d="M4382 1895 c-12 -25 -20 -45 -17 -45 7 0 47 81 43 86 -3 2 -14 -17
-26 -41z"/>
<path d="M2750 1898 c0 -27 30 -68 50 -68 9 0 24 8 33 18 15 16 15 21 2 38
-13 20 -12 21 37 23 29 1 54 4 57 6 2 3 -37 4 -87 3 -82 -2 -92 -4 -92 -20z
m30 -3 c-7 -9 -15 -13 -17 -11 -7 7 7 26 19 26 6 0 6 -6 -2 -15z"/>
<path d="M3283 1913 c15 -2 39 -2 55 0 15 2 2 4 -28 4 -30 0 -43 -2 -27 -4z"/>
<path d="M3435 1910 c3 -5 8 -10 11 -10 2 0 4 5 4 10 0 6 -5 10 -11 10 -5 0
-7 -4 -4 -10z"/>
<path d="M4249 1903 c-13 -16 -12 -17 4 -4 16 13 21 21 13 21 -2 0 -10 -8 -17
-17z"/>
<path d="M3342 1888 c-35 -35 11 -82 54 -53 27 18 28 19 14 46 -12 21 -50 25
-68 7z"/>
<path d="M4150 1797 c-47 -46 -103 -98 -125 -116 -22 -18 -31 -28 -19 -22 39
19 252 222 232 221 -2 0 -41 -38 -88 -83z"/>
<path d="M2747 1836 c-4 -10 -6 -39 -6 -64 l1 -47 9 54 c10 58 7 87 -4 57z"/>
<path d="M3058 1833 c39 -2 105 -2 145 0 39 1 7 3 -73 3 -80 0 -112 -2 -72 -3z"/>
<path d="M3188 1803 c12 -2 32 -2 45 0 12 2 2 4 -23 4 -25 0 -35 -2 -22 -4z"/>
<path d="M4316 1775 c-41 -64 -50 -80 -34 -65 17 17 62 90 55 90 -3 0 -12 -11
-21 -25z"/>
<path d="M3428 1763 c7 -3 16 -2 19 1 4 3 -2 6 -13 5 -11 0 -14 -3 -6 -6z"/>
<path d="M1835 1750 c-4 -6 19 -10 63 -10 l69 0 7 -87 c5 -70 3 -89 -9 -103
-8 -9 -15 -22 -15 -28 0 -7 -16 -12 -38 -12 -43 0 -69 -16 -74 -45 -3 -19 3
-20 155 -23 148 -2 157 -1 157 16 0 29 -33 52 -73 52 -22 0 -37 5 -37 12 0 6
-7 19 -15 28 -12 14 -14 33 -9 103 l7 87 63 0 c36 0 64 4 64 10 0 6 -58 10
-154 10 -93 0 -157 -4 -161 -10z"/>
<path d="M3388 1753 c7 -3 16 -2 19 1 4 3 -2 6 -13 5 -11 0 -14 -3 -6 -6z"/>
<path d="M3265 1725 c-39 -17 -21 -18 25 0 19 7 28 14 20 14 -8 0 -28 -6 -45
-14z"/>
<path d="M3518 1693 c7 -3 16 -2 19 1 4 3 -2 6 -13 5 -11 0 -14 -3 -6 -6z"/>
<path d="M3606 1687 c3 -10 9 -15 12 -12 3 3 0 11 -7 18 -10 9 -11 8 -5 -6z"/>
<path d="M6250 1678 c-36 -30 -140 -76 -211 -92 -34 -8 -64 -17 -67 -21 -3 -3
-6 -61 -6 -128 -1 -145 20 -227 83 -324 40 -62 139 -153 197 -180 31 -15 34
-15 77 10 67 39 156 124 198 189 55 86 71 158 67 313 l-3 130 -30 3 c-56 6
-154 43 -215 83 -33 21 -62 39 -63 39 -1 -1 -13 -10 -27 -22z m197 -239 l22
-22 -49 -56 c-27 -31 -78 -87 -114 -126 l-64 -70 -67 65 c-67 67 -77 92 -43
114 14 9 26 3 63 -34 52 -51 33 -60 149 73 38 42 71 77 74 77 3 0 16 -10 29
-21z"/>
<path d="M4249 1673 c-13 -16 -12 -17 4 -4 16 13 21 21 13 21 -2 0 -10 -8 -17
-17z"/>
<path d="M3438 1673 c7 -3 16 -2 19 1 4 3 -2 6 -13 5 -11 0 -14 -3 -6 -6z"/>
<path d="M3307 1645 c-48 -17 -62 -29 -22 -19 54 13 101 33 80 33 -11 0 -37
-6 -58 -14z"/>
<path d="M4150 1558 c-46 -51 -67 -77 -46 -58 39 36 141 150 134 150 -2 0 -41
-42 -88 -92z"/>
<path d="M3089 1623 c-13 -16 -12 -17 4 -4 16 13 21 21 13 21 -2 0 -10 -8 -17
-17z"/>
<path d="M3049 1593 c-13 -16 -12 -17 4 -4 9 7 17 15 17 17 0 8 -8 3 -21 -13z"/>
<path d="M3884 1584 c-18 -14 -18 -15 4 -4 12 6 22 13 22 15 0 8 -5 6 -26 -11z"/>
<path d="M8264 1585 c-7 -18 3 -35 21 -35 21 0 28 19 15 35 -16 19 -29 19 -36
0z"/>
<path d="M8512 1588 c-7 -7 -12 -24 -12 -39 0 -15 -7 -29 -15 -33 -8 -3 -15
-12 -15 -21 0 -8 7 -15 15 -15 12 0 15 -15 15 -71 0 -62 2 -70 18 -67 14 3 18
16 20 71 2 51 6 67 17 67 9 0 15 9 15 21 0 14 -5 19 -15 16 -8 -4 -16 -3 -18
1 -8 13 10 47 24 47 7 0 15 8 17 18 3 13 -3 17 -25 17 -16 0 -34 -5 -41 -12z"/>
<path d="M9057 1593 c-15 -14 -7 -43 12 -43 26 0 36 17 21 35 -14 16 -23 19
-33 8z"/>
<path d="M3122 1545 c-32 -24 -65 -52 -73 -62 -8 -10 18 7 56 36 85 66 91 71
83 71 -3 0 -33 -20 -66 -45z"/>
<path d="M6965 1468 c38 -109 45 -123 66 -123 20 0 28 14 65 110 50 129 51
137 22 133 -17 -2 -27 -20 -51 -92 -33 -100 -34 -99 -73 17 -22 67 -29 77 -49
77 l-23 0 43 -122z"/>
<path d="M2737 1567 c-5 -14 2 -89 9 -96 2 -2 4 21 4 52 0 57 -3 69 -13 44z"/>
<path d="M3009 1563 c-13 -16 -12 -17 4 -4 9 7 17 15 17 17 0 8 -8 3 -21 -13z"/>
<path d="M3760 1520 c-109 -56 -113 -67 -6 -16 63 31 120 66 106 65 -3 0 -48
-22 -100 -49z"/>
<path d="M3465 1539 c-22 -10 -29 -16 -15 -13 28 7 80 33 65 33 -5 0 -28 -9
-50 -20z"/>
<path d="M7330 1535 c0 -14 -4 -25 -10 -25 -5 0 -10 -7 -10 -15 0 -8 5 -15 10
-15 6 0 10 -21 10 -48 0 -60 22 -94 58 -90 35 4 39 26 8 38 -23 8 -26 15 -26
54 0 39 3 45 23 48 27 4 30 33 2 33 -13 0 -21 8 -23 23 -5 32 -42 30 -42 -3z"/>
<path d="M8150 1535 c0 -16 -6 -25 -15 -25 -8 0 -15 -7 -15 -15 0 -8 7 -15 15
-15 11 0 15 -13 15 -54 0 -63 18 -89 59 -84 32 4 35 32 4 36 -20 3 -23 9 -23
53 0 42 3 49 20 49 11 0 20 7 20 15 0 8 -9 15 -20 15 -15 0 -20 7 -20 25 0 18
-5 25 -20 25 -15 0 -20 -7 -20 -25z"/>
<path d="M8940 1535 c0 -16 -6 -25 -15 -25 -8 0 -15 -5 -15 -10 0 -6 7 -13 15
-16 11 -5 15 -22 15 -63 0 -31 5 -62 12 -69 12 -12 60 -17 71 -6 11 11 -5 34
-24 34 -16 0 -19 8 -19 50 0 43 3 50 20 50 11 0 20 7 20 15 0 8 -9 15 -20 15
-15 0 -20 7 -20 25 0 18 -5 25 -20 25 -15 0 -20 -7 -20 -25z"/>
<path d="M3395 1510 c-3 -6 1 -7 9 -4 18 7 21 14 7 14 -6 0 -13 -4 -16 -10z"/>
<path d="M7175 1508 c-30 -16 -45 -39 -45 -69 0 -85 77 -127 137 -75 22 19 28
32 28 66 0 68 -63 109 -120 78z m75 -49 c15 -26 5 -66 -19 -78 -41 -23 -84 52
-49 87 19 19 56 14 68 -9z"/>
<path d="M7444 1507 c-3 -8 -3 -48 -1 -88 4 -57 9 -75 21 -77 13 -3 16 6 16
48 0 64 13 90 45 90 16 0 25 6 25 15 0 21 -27 30 -44 15 -11 -8 -20 -9 -36 0
-16 8 -21 8 -26 -3z"/>
<path d="M7610 1513 c-52 -19 -67 -107 -25 -148 35 -36 115 -29 115 10 0 18
-1 18 -36 5 -21 -8 -31 -7 -45 6 -30 27 -23 34 36 34 54 0 55 0 55 29 0 47
-53 81 -100 64z m55 -43 c18 -20 17 -20 -23 -20 -47 0 -49 2 -26 24 20 21 27
20 49 -4z"/>
<path d="M7842 1504 c-24 -17 -29 -56 -9 -71 6 -6 25 -15 41 -20 17 -5 32 -15
34 -21 6 -18 -28 -27 -51 -13 -29 18 -50 -5 -23 -25 37 -27 96 -13 108 26 8
24 -10 49 -47 65 -19 7 -35 19 -35 25 0 17 29 23 46 9 13 -10 17 -10 25 2 20
33 -49 51 -89 23z"/>
<path d="M7998 1509 c-33 -19 -21 -36 23 -35 25 1 44 -4 46 -11 3 -8 -4 -13
-19 -13 -64 -1 -100 -38 -78 -81 13 -24 57 -35 81 -21 13 8 19 8 21 0 2 -6 12
-9 21 -5 13 5 17 19 17 67 0 51 -4 65 -25 85 -25 26 -58 31 -87 14z m72 -103
c0 -20 -27 -39 -45 -32 -8 3 -15 15 -15 26 0 16 7 20 30 20 19 0 30 -5 30 -14z"/>
<path d="M8350 1500 c-34 -34 -21 -61 43 -88 15 -6 27 -16 27 -22 0 -18 -31
-24 -53 -11 -29 18 -50 -5 -23 -25 28 -20 73 -17 96 6 34 34 23 65 -31 87 -22
8 -39 19 -39 23 0 14 31 20 50 10 26 -14 39 9 15 27 -27 19 -62 16 -85 -7z"/>
<path d="M8614 1506 c-27 -21 -6 -43 26 -26 16 9 25 9 36 -1 23 -19 17 -37
-11 -31 -14 2 -36 -3 -51 -12 -36 -24 -31 -76 9 -90 20 -7 34 -7 47 2 12 7 21
8 25 2 3 -6 13 -10 21 -10 11 0 14 15 14 65 0 57 -3 69 -25 90 -27 28 -62 32
-91 11z m74 -102 c-5 -25 -35 -41 -49 -27 -18 18 -3 43 26 43 19 0 26 -5 23
-16z"/>
<path d="M8783 1496 c-22 -19 -28 -32 -28 -66 0 -34 6 -47 28 -66 31 -27 74
-31 102 -10 17 12 17 16 6 30 -10 12 -17 14 -25 6 -19 -19 -56 -11 -66 15 -14
36 3 75 33 75 13 0 28 -5 33 -10 8 -8 15 -6 23 4 10 11 8 17 -11 30 -32 22
-62 20 -95 -8z"/>
<path d="M9055 1507 c-3 -7 -5 -47 -3 -88 2 -58 6 -74 18 -74 12 0 15 16 15
84 0 59 -4 86 -12 88 -7 3 -15 -2 -18 -10z"/>
<path d="M9149 1491 c-20 -20 -29 -39 -29 -61 0 -37 47 -90 79 -90 52 0 91 41
91 96 0 34 -51 84 -85 84 -16 0 -38 -12 -56 -29z m89 -23 c7 -7 12 -24 12 -38
0 -52 -61 -71 -82 -25 -23 51 32 101 70 63z"/>
<path d="M9375 1510 c-3 -6 -17 -7 -31 -4 l-24 6 0 -85 c0 -75 2 -85 18 -83
13 2 18 16 22 67 5 58 7 64 29 67 32 5 41 -12 41 -81 0 -50 2 -58 18 -55 13 2
18 15 20 52 4 59 -3 89 -24 110 -17 18 -60 21 -69 6z"/>
<path d="M8262 1428 c3 -70 6 -83 21 -86 15 -3 17 6 17 82 0 80 -1 86 -20 86
-20 0 -21 -5 -18 -82z"/>
<path d="M2755 1460 c-14 -7 -8 -8 20 -3 22 3 42 7 44 9 9 8 -45 2 -64 -6z"/>
<path d="M4036 1451 c-30 -33 -169 -129 -256 -175 -47 -25 -80 -46 -75 -46 19
0 160 82 237 137 70 50 129 103 116 103 -3 0 -12 -8 -22 -19z"/>
<path d="M3525 1434 c-6 -2 -37 -8 -70 -13 l-60 -9 55 0 c30 -1 69 5 85 13 26
12 17 20 -10 9z"/>
<path d="M2935 1418 c-10 -6 -44 -19 -75 -29 -36 -11 -47 -17 -30 -18 14 -1
52 12 85 28 33 16 56 30 50 30 -5 0 -19 -5 -30 -11z"/>
<path d="M1837 1379 c-14 -35 -14 -41 -1 -46 8 -3 16 -4 17 -2 2 2 10 21 20
42 22 48 42 49 22 1 -8 -20 -15 -42 -14 -48 0 -6 8 9 18 34 10 24 24 46 31 48
7 3 10 0 6 -7 -4 -7 -1 -9 8 -5 12 5 14 -2 11 -33 -4 -31 -3 -33 4 -13 9 24 9
24 10 3 1 -13 6 -23 12 -23 7 0 10 15 7 40 -2 22 -1 40 3 40 7 0 19 -49 20
-89 l1 -26 8 25 c5 17 8 19 9 8 1 -10 6 -18 12 -18 7 0 9 10 5 25 -3 14 -9 36
-12 50 -10 41 14 29 25 -12 6 -21 11 -44 11 -50 0 -7 4 -13 9 -13 4 0 6 12 4
28 -4 22 -2 24 7 12 9 -12 10 -10 4 10 -4 14 -9 31 -11 38 -9 22 17 12 27 -10
5 -14 9 -17 10 -8 0 11 7 8 21 -10 20 -23 20 -25 2 -31 -14 -6 -15 -8 -2 -8
26 -1 28 8 10 50 l-16 39 -141 0 -141 0 -16 -41z m31 6 c-6 -14 -13 -23 -16
-21 -7 7 9 46 18 46 5 0 4 -11 -2 -25z"/>
<path d="M9513 1393 c-15 -6 -17 -39 -3 -48 6 -4 5 -13 -2 -25 -17 -26 -1 -38
17 -14 23 30 29 64 14 79 -8 7 -20 11 -26 8z"/>
<path d="M1922 1360 c0 -14 2 -19 5 -12 2 6 2 18 0 25 -3 6 -5 1 -5 -13z"/>
<path d="M2768 1363 c6 -2 18 -2 25 0 6 3 1 5 -13 5 -14 0 -19 -2 -12 -5z"/>
<path d="M2684 1348 c-7 -12 22 -39 76 -71 47 -28 35 -12 -15 20 -50 31 -57
49 -22 56 19 4 19 4 -5 6 -15 0 -30 -4 -34 -11z"/>
<path d="M1940 1316 c0 -2 9 -6 20 -9 11 -3 20 -1 20 4 0 5 -9 9 -20 9 -11 0
-20 -2 -20 -4z"/>
<path d="M2825 1241 c6 -10 136 -64 141 -58 2 2 -30 17 -71 35 -42 17 -73 27
-70 23z"/>
<path d="M3660 1220 c-8 -5 -10 -10 -5 -10 6 0 17 5 25 10 8 5 11 10 5 10 -5
0 -17 -5 -25 -10z"/>
<path d="M3575 1189 c-27 -10 -37 -17 -21 -14 31 7 97 33 81 33 -5 0 -32 -8
-60 -19z"/>
<path d="M3498 1163 c7 -3 16 -2 19 1 4 3 -2 6 -13 5 -11 0 -14 -3 -6 -6z"/>
<path d="M8144 1159 c-9 -16 12 -33 31 -25 14 5 15 9 5 21 -15 18 -26 19 -36
4z"/>
<path d="M8811 1143 c-13 -28 -13 -28 8 -9 22 20 27 36 13 36 -5 0 -14 -12
-21 -27z"/>
<path d="M3058 1153 c7 -3 16 -2 19 1 4 3 -2 6 -13 5 -11 0 -14 -3 -6 -6z"/>
<path d="M8564 1152 c3 -5 0 -13 -6 -15 -9 -4 -10 -6 -1 -6 17 -1 25 16 12 25
-7 4 -9 3 -5 -4z"/>
<path d="M3113 1143 c9 -2 25 -2 35 0 9 3 1 5 -18 5 -19 0 -27 -2 -17 -5z"/>
<path d="M3398 1143 c7 -3 16 -2 19 1 4 3 -2 6 -13 5 -11 0 -14 -3 -6 -6z"/>
<path d="M3208 1133 c23 -2 59 -2 80 0 20 2 1 4 -43 4 -44 0 -61 -2 -37 -4z"/>
<path d="M8644 1132 c-7 -4 -14 -16 -16 -27 -2 -11 -11 -19 -19 -17 -10 2 -9
-2 4 -11 11 -10 17 -30 18 -63 l2 -49 7 40 c6 39 6 39 12 10 4 -26 5 -24 7 13
1 38 3 42 27 42 14 0 23 4 19 10 -3 6 -15 10 -25 10 -12 0 -20 8 -22 25 -2 15
-7 22 -14 17z"/>
<path d="M7340 1104 c0 -19 -4 -25 -15 -20 -8 3 -15 1 -15 -3 0 -5 7 -11 15
-14 10 -4 15 -25 17 -69 l3 -63 33 -3 c18 -2 32 1 32 7 0 6 -9 11 -19 11 -23
0 -31 19 -31 76 0 40 2 44 25 44 14 0 25 5 25 11 0 6 -7 9 -15 5 -17 -6 -48
21 -40 35 4 5 1 9 -4 9 -6 0 -11 -12 -11 -26z"/>
<path d="M6950 1010 c0 -64 3 -80 15 -80 12 0 15 13 15 59 0 35 5 63 13 68 19
16 65 24 72 13 4 -6 -1 -7 -12 -3 -15 5 -16 3 -5 -8 6 -7 12 -29 12 -48 0 -25
3 -32 9 -22 7 11 10 9 14 -10 2 -13 5 -1 6 28 1 57 -15 83 -53 83 -38 0 -64
-38 -69 -100 -3 -55 -3 -55 -5 13 -1 39 2 67 8 67 6 0 10 5 10 10 0 6 -7 10
-15 10 -12 0 -15 -16 -15 -80z"/>
<path d="M7155 1065 c-17 -17 -25 -34 -24 -57 l2 -33 7 35 c4 19 8 28 9 20 2
-10 6 -7 11 8 6 14 21 25 40 28 37 8 40 24 5 24 -14 0 -37 -11 -50 -25z"/>
<path d="M7450 1010 c0 -70 2 -80 18 -79 10 0 12 3 5 6 -17 6 -17 125 -1 141
9 9 8 12 -5 12 -15 0 -17 -11 -17 -80z"/>
<path d="M7493 1071 c-11 -18 -10 -18 18 -8 32 13 39 27 11 27 -9 0 -23 -9
-29 -19z"/>
<path d="M7604 1080 c-24 -9 -38 -36 -24 -45 5 -3 14 4 20 15 16 31 74 25 76
-7 2 -20 -3 -23 -39 -23 -56 0 -41 -10 21 -14 51 -4 52 -4 46 23 -11 49 -52
71 -100 51z"/>
<path d="M7830 970 c0 -102 2 -119 15 -114 10 4 15 20 15 51 0 38 2 44 14 34
20 -16 82 -10 78 7 -1 8 2 11 8 7 19 -12 23 26 6 58 -9 18 -14 24 -12 14 3 -9
0 -30 -6 -45 -6 -15 -11 -30 -10 -33 2 -10 -48 -1 -63 11 -20 17 -19 74 1 91
10 8 29 19 43 26 l26 11 -25 1 c-15 1 -32 -5 -39 -11 -11 -10 -14 -10 -18 0
-3 6 -11 12 -19 12 -11 0 -14 -23 -14 -120z m17 68 c-3 -7 -5 -2 -5 12 0 14 2
19 5 13 2 -7 2 -19 0 -25z m0 -80 c-3 -7 -5 -2 -5 12 0 14 2 19 5 13 2 -7 2
-19 0 -25z m0 -75 c-3 -10 -5 -4 -5 12 0 17 2 24 5 18 2 -7 2 -21 0 -30z"/>
<path d="M8030 1080 c-13 -8 -12 -10 3 -10 9 0 17 5 17 10 0 12 -1 12 -20 0z"/>
<path d="M8070 1071 c-9 -19 -8 -19 20 -4 35 17 38 23 10 23 -10 0 -24 -9 -30
-19z"/>
<path d="M8150 1010 c0 -70 2 -80 18 -79 10 0 12 3 5 6 -9 3 -13 25 -11 66 1
62 1 62 8 17 l7 -45 1 58 c2 45 -1 57 -13 57 -12 0 -15 -16 -15 -80z"/>
<path d="M8245 1065 c-31 -30 -32 -74 -4 -106 l21 -24 -16 25 c-9 13 -16 34
-15 45 0 20 0 20 9 0 8 -18 9 -18 9 6 1 27 28 59 51 59 7 0 23 -8 34 -17 20
-17 20 -17 7 0 -13 17 -4 24 15 10 5 -5 1 0 -9 10 -28 25 -73 22 -102 -8z m20
-5 c-10 -11 -21 -17 -24 -14 -3 3 3 12 13 20 28 20 32 17 11 -6z"/>
<path d="M8420 1010 c0 -64 3 -80 15 -80 12 0 15 12 13 58 l-1 57 -7 -55 -7
-55 -1 68 c-1 39 2 67 8 67 6 0 10 5 10 10 0 6 -7 10 -15 10 -12 0 -15 -16
-15 -80z"/>
<path d="M8464 1069 c-13 -15 -14 -20 -4 -15 8 3 23 9 33 12 9 4 17 10 17 15
0 17 -27 9 -46 -12z"/>
<path d="M8548 1083 c6 -2 12 -9 12 -14 0 -6 -4 -7 -10 -4 -6 4 -10 -20 -10
-64 0 -56 3 -71 15 -71 12 0 15 16 15 80 0 70 -2 80 -17 79 -11 0 -13 -3 -5
-6z"/>
<path d="M8765 1077 c-11 -9 -15 -19 -10 -27 5 -9 4 -11 -3 -6 -9 5 -12 -6
-12 -37 0 -59 26 -84 72 -69 30 9 31 10 8 11 -30 1 -50 18 -50 42 0 14 10 19
43 22 l42 4 -42 1 c-43 2 -48 7 -37 36 13 35 77 6 97 -45 4 -10 6 -9 6 4 1 21
-17 59 -33 69 -18 12 -61 9 -81 -5z"/>
<path d="M7249 1072 c8 -6 10 -15 6 -22 -5 -8 -4 -11 1 -7 6 3 10 -11 9 -33 0
-21 -3 -36 -6 -34 -4 2 -12 -3 -19 -11 -15 -18 -51 -19 -69 -2 -11 10 -13 10
-7 0 4 -7 2 -13 -3 -13 -6 0 -11 5 -11 12 0 6 -3 8 -7 4 -14 -13 29 -36 67
-36 42 0 67 22 75 66 6 33 -12 75 -35 81 -12 4 -13 3 -1 -5z m28 -74 c-3 -7
-5 -2 -5 12 0 14 2 19 5 13 2 -7 2 -19 0 -25z"/>
<path d="M7471 1024 c0 -11 3 -14 6 -6 3 7 2 16 -1 19 -3 4 -6 -2 -5 -13z"/>
<path d="M8021 983 c-1 -41 2 -53 14 -53 17 0 21 40 6 56 -5 5 -11 18 -14 29
-3 11 -5 -4 -6 -32z"/>
<path d="M8351 1012 c-2 -38 -20 -62 -46 -62 -31 0 -41 -15 -12 -18 39 -4 63
7 76 34 6 15 9 29 6 32 -3 3 -6 -1 -6 -9 -1 -8 -5 0 -9 16 -6 25 -8 26 -9 7z
m-5 -60 c-17 -16 -18 -16 -5 5 7 12 15 20 18 17 3 -2 -3 -12 -13 -22z"/>
<path d="M7576 985 c-14 -38 47 -68 98 -49 29 11 17 20 -23 16 -34 -3 -41 -1
-54 23 -12 24 -15 25 -21 10z"/>
<path d="M8667 951 c2 -8 -2 -11 -12 -7 -9 3 -13 2 -10 -4 7 -12 65 -10 65 2
0 4 -9 8 -19 8 -11 0 -21 3 -24 8 -2 4 -2 1 0 -7z"/>
<path d="M8915 961 c-8 -15 3 -31 21 -31 9 0 14 7 12 17 -4 20 -24 28 -33 14z"/>
</g>
</svg>
